<?xml version="1.0" standalone="no"?>
<!DOCTYPE svg PUBLIC "-//W3C//DTD SVG 20010904//EN"
 "http://www.w3.org/TR/2001/REC-SVG-20010904/DTD/svg10.dtd">
<svg version="1.0" xmlns="http://www.w3.org/2000/svg"
 width="2000.000000pt" height="1333.000000pt" viewBox="0 0 2000.000000 1333.000000"
 preserveAspectRatio="xMidYMid meet">

<g transform="translate(0.000000,1333.000000) scale(0.100000,-0.100000)"
fill="#000000" stroke="none">
<path d="M5608 6953 c7 -3 16 -2 19 1 4 3 -2 6 -13 5 -11 0 -14 -3 -6 -6z"/>
<path d="M4320 6739 c-61 -12 -101 -29 -94 -41 3 -5 0 -9 -7 -7 -25 3 -39 -1
-39 -11 0 -5 7 -7 15 -4 23 9 18 -4 -6 -17 -15 -8 -19 -8 -15 0 4 6 1 11 -7
11 -40 0 -189 -212 -171 -242 4 -7 3 -8 -4 -4 -11 7 -16 -7 -15 -41 1 -7 -2
-11 -6 -8 -9 5 -30 -74 -35 -128 -2 -21 -6 -40 -10 -44 -3 -3 -6 -80 -6 -169
0 -133 4 -184 24 -281 36 -176 109 -389 129 -376 6 4 8 0 5 -8 -7 -17 27 -97
34 -83 3 5 3 3 1 -4 -4 -20 15 -52 32 -52 8 0 15 -8 15 -17 0 -15 -2 -16 -10
-3 -5 8 -10 12 -10 8 0 -12 102 -183 112 -186 4 -2 8 -8 8 -14 0 -15 101 -157
119 -168 9 -5 12 -10 8 -10 -13 0 36 -66 106 -141 9 -10 16 -20 15 -21 -7 -7
55 -77 65 -75 7 1 11 -4 9 -12 -4 -21 40 -64 49 -49 5 8 8 5 7 -9 -2 -13 25
-51 72 -105 41 -47 77 -83 79 -81 2 1 9 -7 16 -20 6 -12 17 -21 24 -19 7 1 10
-2 7 -6 -7 -12 28 -44 38 -35 4 5 6 1 4 -7 -2 -8 3 -14 10 -12 6 1 11 -4 10
-10 -2 -7 3 -12 10 -10 6 1 11 -4 10 -10 -2 -7 3 -12 10 -10 8 1 11 -2 8 -6
-5 -9 32 -50 40 -44 2 1 4 -1 5 -5 1 -15 21 -33 29 -28 5 3 12 0 16 -6 5 -8 3
-10 -7 -4 -8 5 -7 1 3 -10 14 -15 20 -16 32 -6 9 8 14 17 11 20 -2 4 1 8 8 8
7 0 44 19 82 42 39 23 87 46 108 52 20 5 37 14 37 19 0 5 6 7 14 4 8 -3 23 -1
33 5 17 10 17 10 -1 11 -11 0 -17 3 -13 6 6 6 -70 116 -85 122 -4 2 -8 10 -8
17 0 8 -7 18 -16 23 -9 5 -14 11 -12 13 6 8 -39 58 -46 51 -4 -3 -4 0 -1 9 3
8 -2 24 -12 35 -10 11 -25 32 -33 46 -20 36 -84 138 -137 220 -24 37 -43 72
-43 78 0 6 -5 8 -12 4 -6 -4 -8 -3 -5 4 4 5 -9 41 -29 79 -59 109 -168 325
-183 363 -8 19 -29 67 -46 105 -96 212 -208 530 -280 795 -9 36 -25 93 -35
128 -17 60 -17 63 0 72 33 18 48 11 55 -22 4 -18 11 -46 16 -63 21 -70 92
-322 97 -345 2 -14 9 -30 14 -37 5 -7 15 -34 23 -60 14 -51 76 -218 100 -268
8 -16 25 -60 39 -96 51 -134 202 -443 298 -609 35 -61 68 -119 74 -130 6 -11
18 -28 26 -37 9 -10 19 -29 23 -43 4 -14 21 -41 36 -61 16 -20 29 -42 29 -48
0 -6 5 -11 10 -11 6 0 10 -5 10 -10 0 -6 18 -35 40 -65 22 -30 40 -57 40 -62
0 -4 12 -19 27 -35 14 -15 36 -43 47 -61 71 -115 86 -126 119 -92 9 8 17 10
19 5 2 -6 111 -11 283 -12 l280 -3 3 1112 2 1113 588 2 587 3 1 64 c1 61 3 65
40 97 l39 34 -695 -3 -695 -2 -63 -29 c-120 -55 -162 -132 -171 -308 -3 -65
-4 -118 -1 -118 3 0 6 -365 8 -812 1 -479 -1 -808 -7 -803 -8 10 -18 35 -97
255 -19 52 -38 104 -43 115 -5 11 -18 45 -29 75 -11 30 -34 93 -52 140 -17 47
-35 94 -40 105 -4 11 -28 70 -52 132 -27 71 -46 107 -51 100 -6 -8 -7 -6 -3 6
5 16 -10 64 -49 152 -67 155 -101 223 -109 218 -5 -4 -6 -1 -2 6 9 14 -133
303 -145 295 -4 -2 -11 1 -15 7 -4 8 -3 9 4 5 7 -4 12 -5 12 -1 0 15 -120 200
-129 198 -6 -2 -8 3 -6 10 6 15 -73 109 -85 102 -5 -3 -12 0 -16 6 -4 8 -3 9
4 5 7 -4 12 -3 12 2 0 15 -66 62 -75 54 -5 -4 -5 -2 -2 4 9 16 -19 38 -35 28
-7 -4 -10 -3 -5 1 10 12 -43 44 -61 37 -9 -3 -13 -1 -9 5 9 15 -58 43 -141 59
-82 15 -87 16 -152 3z m-50 -34 c-7 -8 -17 -15 -23 -15 -6 0 -2 7 9 15 25 19
30 19 14 0z m284 -3 c3 -5 -1 -9 -9 -9 -8 0 -12 4 -9 9 3 4 7 8 9 8 2 0 6 -4
9 -8z m93 -48 c-3 -3 -12 -4 -19 -1 -8 3 -5 6 6 6 11 1 17 -2 13 -5z m-556
-77 c-10 -9 -11 -8 -5 6 3 10 9 15 12 12 3 -3 0 -11 -7 -18z m-134 -309 c-3
-8 -6 -5 -6 6 -1 11 2 17 5 13 3 -3 4 -12 1 -19z m-10 -160 c-3 -8 -6 -5 -6 6
-1 11 2 17 5 13 3 -3 4 -12 1 -19z m10 -360 c-3 -7 -5 -2 -5 12 0 14 2 19 5
13 2 -7 2 -19 0 -25z m1730 -1330 c-2 -24 -4 -7 -4 37 0 44 2 63 4 43 2 -21 2
-57 0 -80z m-987 53 c13 -11 12 -12 -6 -3 -12 7 -24 19 -28 29 -5 16 -4 16 7
3 7 -8 19 -21 27 -29z m933 -188 c-24 -2 -62 -2 -85 0 -24 2 -5 4 42 4 47 0
66 -2 43 -4z"/>
<path d="M12170 6688 c0 -2 -2 -37 -4 -78 -1 -41 -8 -85 -15 -98 l-12 -22 446
0 445 0 0 -1565 0 -1565 214 0 c219 0 322 -11 401 -44 20 -9 44 -16 51 -16 12
0 14 234 12 1593 l-3 1592 -22 40 c-28 52 -75 100 -132 133 l-46 27 -667 3
c-368 1 -668 1 -668 0z"/>
<path d="M14872 5849 c-40 -13 -60 -24 -56 -31 4 -7 3 -8 -4 -4 -22 14 -188
-115 -175 -136 3 -6 1 -8 -5 -4 -5 3 -25 -13 -43 -36 -19 -24 -38 -46 -43 -50
-6 -4 -4 -14 5 -25 13 -16 12 -17 -3 -5 -14 11 -23 3 -73 -68 -43 -61 -54 -84
-46 -94 11 -14 5 -26 -13 -26 -6 0 -5 4 3 9 8 5 9 11 3 15 -13 8 -45 -41 -36
-56 4 -6 3 -8 -3 -5 -11 7 -39 -31 -95 -126 -23 -40 -27 -52 -16 -59 10 -8 9
-9 -3 -5 -10 3 -22 -7 -35 -31 -14 -26 -16 -36 -6 -40 14 -4 7 -22 -9 -22 -6
0 -7 5 -4 10 3 6 3 10 -2 10 -10 0 -99 -170 -95 -182 1 -5 -1 -7 -6 -4 -10 6
-55 -82 -47 -94 3 -5 -1 -12 -9 -17 -21 -12 -88 -141 -80 -154 4 -7 3 -9 -3
-6 -13 8 -26 -20 -16 -35 3 -7 1 -8 -5 -4 -7 4 -22 -14 -38 -46 -16 -31 -21
-49 -12 -43 8 6 7 4 -2 -5 -14 -14 -45 -67 -133 -230 -16 -30 -34 -59 -38 -64
-5 -6 -9 -99 -9 -209 l0 -198 21 15 c39 27 147 135 141 140 -3 3 -1 6 4 6 5 0
35 25 67 55 32 30 56 55 55 55 -2 0 35 39 80 87 76 78 181 201 207 241 6 8 17
23 25 33 38 44 47 56 75 94 70 94 233 338 263 395 14 25 32 56 42 70 9 14 24
39 32 55 52 103 94 180 101 183 4 2 7 10 7 18 0 8 10 34 22 57 12 23 22 44 23
47 0 3 14 37 32 75 17 39 46 105 63 148 29 69 34 77 54 71 11 -4 22 -8 24 -9
5 -4 -23 -84 -47 -137 -144 -321 -179 -395 -233 -483 -10 -16 -27 -48 -38 -70
-25 -49 -44 -81 -133 -214 -37 -57 -66 -109 -63 -117 3 -8 0 -11 -8 -8 -8 3
-17 0 -22 -7 -4 -8 -3 -10 4 -5 8 5 10 2 6 -9 -4 -9 -9 -14 -12 -11 -8 9 -122
-146 -115 -157 4 -6 1 -7 -7 -2 -10 6 -12 4 -7 -9 4 -10 3 -15 -3 -11 -5 3
-28 -18 -50 -47 -23 -29 -67 -82 -98 -117 -32 -35 -56 -68 -54 -73 1 -5 -2 -7
-7 -4 -5 3 -16 -6 -26 -20 -32 -49 -386 -391 -416 -402 -5 -2 -9 -55 -9 -118
l0 -114 35 17 c19 9 31 21 28 27 -3 6 -3 8 2 4 12 -11 67 21 59 34 -4 7 -3 8
5 4 15 -10 83 33 75 46 -4 7 -2 8 5 4 14 -9 83 32 76 45 -4 5 1 6 9 3 9 -4 18
1 22 10 3 9 9 14 14 11 11 -7 111 71 102 80 -4 5 -2 5 4 2 15 -8 56 22 48 35
-4 7 -2 8 5 4 14 -9 43 12 35 25 -3 5 1 7 8 4 17 -7 220 154 211 167 -3 7 -1
8 5 4 14 -9 94 63 85 77 -4 6 0 8 9 4 20 -7 38 11 31 32 -4 12 -3 13 4 3 14
-19 300 259 288 279 -5 8 -4 11 0 6 13 -11 44 23 38 41 -3 13 -2 14 4 4 7 -9
25 6 70 60 75 92 95 122 86 133 -5 4 -3 5 4 2 22 -13 195 297 197 354 1 15 4
25 7 23 20 -12 69 249 69 366 -1 114 -32 256 -53 243 -6 -3 -7 -1 -3 6 10 16
-3 53 -16 45 -7 -4 -8 -2 -4 5 16 26 -118 162 -144 146 -5 -3 -10 -2 -10 3 0
15 -74 32 -136 31 -33 0 -87 -10 -122 -20z m198 1 c8 -5 11 -10 5 -10 -5 0
-17 5 -25 10 -8 5 -10 10 -5 10 6 0 17 -5 25 -10z m-296 -68 c3 -5 -1 -9 -9
-9 -8 0 -12 4 -9 9 3 4 7 8 9 8 2 0 6 -4 9 -8z m-57 -48 c-3 -3 -12 -4 -19 -1
-8 3 -5 6 6 6 11 1 17 -2 13 -5z m630 -371 c-3 -10 -5 -2 -5 17 0 19 2 27 5
18 2 -10 2 -26 0 -35z m-994 -98 c-3 -9 -8 -14 -10 -11 -3 3 -2 9 2 15 9 16
15 13 8 -4z m-157 -277 c4 -7 3 -8 -4 -4 -7 4 -12 2 -12 -3 0 -6 -5 -11 -11
-11 -8 0 -8 5 1 15 15 18 17 18 26 3z m1067 -25 c-7 -2 -13 -12 -13 -20 0 -9
-3 -14 -6 -10 -10 10 4 37 18 36 10 0 10 -2 1 -6z m-1008 -53 c3 -5 1 -10 -4
-10 -6 0 -11 5 -11 10 0 6 2 10 4 10 3 0 8 -4 11 -10z m918 -135 c-3 -9 -8
-14 -10 -11 -3 3 -2 9 2 15 9 16 15 13 8 -4z m-143 -209 c0 -11 -19 -15 -25
-6 -3 5 1 10 9 10 9 0 16 -2 16 -4z"/>
<path d="M16092 4225 c0 -16 2 -22 5 -12 2 9 2 23 0 30 -3 6 -5 -1 -5 -18z"/>
<path d="M5692 2183 l3 -618 28 -57 c30 -61 89 -119 147 -147 32 -15 341 -16
3835 -16 l3800 0 40 22 c51 27 111 87 138 138 20 37 22 58 25 252 l3 212 -69
-24 c-105 -37 -178 -45 -404 -45 l-208 0 0 -180 0 -180 -3485 0 -3485 0 0 630
0 630 -185 0 -186 0 3 -617z"/>
<path d="M5733 1353 c9 -2 25 -2 35 0 9 3 1 5 -18 5 -19 0 -27 -2 -17 -5z"/>
<path d="M10374 946 c5 -19 1 -25 -19 -30 -14 -4 -25 -11 -25 -17 0 -7 9 -9
23 -5 12 3 41 6 65 6 46 0 58 17 15 22 -22 2 -28 8 -26 26 2 16 -2 22 -18 22
-17 0 -20 -4 -15 -24z"/>
<path d="M10520 883 c1 -5 16 -26 35 -47 35 -40 55 -44 36 -8 -8 15 -7 23 5
33 10 8 12 15 5 22 -7 7 -15 6 -26 -3 -12 -10 -19 -10 -27 -2 -14 14 -28 16
-28 5z"/>
<path d="M10751 864 c-11 -15 -21 -37 -21 -50 0 -15 -6 -24 -15 -24 -8 0 -15
-9 -15 -20 0 -11 7 -20 15 -20 12 0 15 -15 15 -75 0 -73 1 -75 25 -75 23 0 24
3 27 73 3 70 4 72 31 75 19 2 27 9 27 23 0 14 -7 19 -30 19 -16 0 -30 4 -30 9
0 25 15 41 37 41 20 0 24 4 21 23 -5 35 -59 36 -87 1z"/>
<path d="M11632 881 c-8 -4 -12 -19 -10 -32 2 -18 9 -24 28 -24 28 0 39 27 20
50 -14 17 -20 18 -38 6z"/>
<path d="M10335 861 c-45 -27 -62 -51 -76 -104 -11 -41 -11 -49 2 -63 36 -36
219 -25 288 17 27 16 30 23 25 46 -22 101 -153 157 -239 104z m61 -76 c15 -23
15 -27 0 -50 -19 -29 -47 -32 -70 -9 -31 30 -9 84 34 84 11 0 27 -11 36 -25z
m112 13 c30 -30 -4 -77 -41 -57 -29 17 -15 69 18 69 6 0 16 -5 23 -12z"/>
<path d="M11710 740 l0 -140 25 0 c22 0 25 4 25 37 l0 37 39 -38 c28 -28 45
-37 65 -34 l26 3 -41 48 -42 48 44 45 43 44 -28 0 c-16 0 -44 -13 -67 -31
l-39 -31 0 76 c0 74 -1 76 -25 76 l-25 0 0 -140z"/>
<path d="M8250 813 c0 -37 -3 -44 -12 -35 -15 15 -72 16 -98 2 -10 -5 -24 -26
-30 -46 -15 -45 0 -108 30 -124 24 -13 66 -13 91 0 13 7 19 7 19 0 0 -5 7 -10
15 -10 13 0 15 21 15 130 0 109 -2 130 -15 130 -11 0 -15 -12 -15 -47z m-25
-55 c22 -10 25 -17 25 -59 0 -41 -4 -51 -25 -65 -67 -44 -122 56 -67 119 18
20 32 21 67 5z"/>
<path d="M8717 853 c-4 -3 -7 -12 -7 -20 0 -15 26 -18 34 -4 7 11 -18 33 -27
24z"/>
<path d="M9560 815 c0 -42 -11 -58 -25 -35 -3 6 -24 10 -45 10 -51 0 -80 -35
-80 -95 0 -59 29 -95 79 -95 20 0 43 6 50 12 11 10 14 11 18 1 3 -7 11 -13 19
-13 11 0 14 25 14 130 0 109 -2 130 -15 130 -11 0 -15 -12 -15 -45z m-22 -61
c27 -19 31 -94 6 -114 -23 -20 -75 -16 -90 5 -21 28 -17 82 6 105 24 24 48 25
78 4z"/>
<path d="M9730 730 c0 -72 4 -130 9 -130 5 0 11 6 14 13 4 10 7 10 18 0 22
-22 77 -16 104 12 19 18 25 35 25 68 0 62 -29 97 -80 97 -21 0 -42 -4 -45 -10
-14 -23 -25 -7 -25 35 0 25 -4 45 -10 45 -6 0 -10 -50 -10 -130z m120 20 c46
-46 9 -140 -48 -125 -42 10 -52 24 -52 71 0 33 5 46 22 58 30 21 54 20 78 -4z"/>
<path d="M10254 845 c-4 -10 -14 -13 -30 -9 -18 5 -24 2 -24 -10 0 -9 7 -16
15 -16 11 0 14 -7 9 -25 -10 -40 9 -29 30 18 11 23 22 45 24 50 2 4 -1 7 -7 7
-7 0 -14 -7 -17 -15z"/>
<path d="M10941 791 c-8 -5 -29 -7 -48 -4 l-33 6 0 -97 c0 -96 0 -96 25 -96
24 0 25 3 25 58 0 66 4 74 45 93 32 15 40 42 15 46 -8 2 -21 -1 -29 -6z"/>
<path d="M11054 793 c-68 -13 -94 -118 -42 -169 21 -22 36 -27 72 -27 53 0 83
18 65 40 -8 9 -22 11 -45 7 -33 -6 -64 7 -64 27 0 5 29 9 65 9 l65 0 0 29 c0
54 -57 95 -116 84z m54 -55 c21 -21 13 -28 -28 -28 -22 0 -40 4 -40 8 0 14 23
32 40 32 9 0 21 -5 28 -12z"/>
<path d="M11243 786 c-17 -8 -36 -23 -42 -35 -16 -29 -13 -93 4 -118 20 -28
76 -44 115 -33 45 13 53 20 39 36 -8 10 -23 12 -50 8 -38 -6 -69 6 -69 27 0 5
32 9 71 9 l71 0 -7 33 c-14 65 -74 98 -132 73z m61 -42 c33 -13 17 -34 -24
-34 -41 0 -49 7 -28 28 13 13 28 15 52 6z"/>
<path d="M11481 791 c-8 -5 -29 -7 -48 -4 l-33 6 0 -137 0 -136 25 0 c23 0 25
4 25 46 0 43 1 45 23 38 62 -22 127 24 127 91 0 60 -78 123 -119 96z m49 -61
c11 -11 20 -27 20 -35 0 -19 -35 -55 -54 -55 -22 0 -46 29 -46 55 0 26 24 55
46 55 8 0 23 -9 34 -20z"/>
<path d="M8362 783 c-18 -7 -42 -57 -42 -88 0 -33 24 -81 45 -89 29 -11 90 -7
110 7 23 18 3 32 -24 17 -30 -15 -55 -12 -79 10 -41 39 -29 50 53 50 74 0 75
0 75 25 0 40 -42 75 -87 74 -21 0 -44 -3 -51 -6z m90 -30 c34 -31 23 -43 -42
-43 -64 0 -72 8 -40 40 24 24 57 26 82 3z"/>
<path d="M8546 777 c-12 -9 -17 -23 -14 -42 3 -26 9 -32 53 -46 37 -11 51 -21
53 -37 4 -27 -31 -38 -72 -22 -35 13 -54 3 -29 -16 25 -19 98 -18 117 2 19 19
21 58 3 72 -7 6 -31 17 -53 24 -28 9 -39 19 -39 33 0 24 42 32 74 16 12 -7 22
-7 26 -2 16 27 -86 42 -119 18z"/>
<path d="M8710 695 c0 -78 3 -95 15 -95 12 0 15 17 15 95 0 78 -3 95 -15 95
-12 0 -15 -17 -15 -95z"/>
<path d="M8801 764 c-14 -18 -21 -41 -21 -71 0 -78 57 -111 134 -78 16 7 17 5
11 -16 -4 -13 -12 -30 -17 -36 -12 -16 -62 -17 -88 -3 -11 6 -21 6 -24 1 -20
-32 101 -46 135 -15 17 15 19 31 19 131 0 100 -9 139 -23 101 -4 -10 -7 -10
-18 0 -7 6 -30 12 -50 12 -29 0 -43 -6 -58 -26z m107 -10 c27 -18 31 -84 6
-108 -20 -21 -63 -20 -86 1 -24 22 -24 77 2 103 24 24 48 25 78 4z"/>
<path d="M9000 695 c0 -77 3 -95 15 -95 11 0 15 17 17 72 3 67 5 73 30 88 47
26 62 6 66 -84 2 -59 6 -76 17 -76 12 0 15 16 15 76 0 96 -9 114 -58 114 -21
0 -44 -6 -51 -12 -11 -10 -14 -10 -18 0 -3 6 -11 12 -19 12 -11 0 -14 -20 -14
-95z"/>
<path d="M9242 783 c-18 -7 -42 -57 -42 -88 0 -30 16 -65 39 -82 22 -17 93
-16 116 0 23 18 3 32 -24 17 -30 -15 -55 -12 -79 10 -41 39 -29 50 53 50 74 0
75 0 75 25 0 40 -42 75 -87 74 -21 0 -44 -3 -51 -6z m90 -30 c34 -31 23 -43
-42 -43 -64 0 -72 8 -40 40 24 24 57 26 82 3z"/>
<path d="M9951 696 c34 -82 38 -98 27 -120 -6 -14 -19 -26 -30 -26 -10 0 -18
-5 -18 -11 0 -6 14 -9 32 -7 30 3 35 9 64 78 68 157 75 180 58 180 -8 0 -23
-20 -34 -47 -11 -27 -26 -61 -33 -77 l-13 -29 -29 77 c-21 53 -35 76 -47 76
-14 0 -11 -14 23 -94z"/>
<path d="M11620 695 c0 -95 0 -95 25 -95 25 0 25 0 25 95 0 95 0 95 -25 95
-25 0 -25 0 -25 -95z"/>
<path d="M10540 685 c-41 -22 -147 -38 -205 -32 -61 6 -68 -1 -29 -32 81 -63
206 -43 249 39 20 38 18 42 -15 25z"/>
</g>
</svg>
