<svg xmlns="http://www.w3.org/2000/svg" viewBox="0 0 500 500"><g id="freepik--background-complete--inject-15"><path d="M389.75,121.43a31.16,31.16,0,0,0,32.77,0,31.16,31.16,0,1,0-32.77,0Z" style="fill:#ebebeb"></path><path d="M396.65,91.36a9.49,9.49,0,1,0,9.49-9.49A9.48,9.48,0,0,0,396.65,91.36Z" style="fill:#fff"></path><path d="M389.75,117.52v3.91a31.16,31.16,0,0,0,32.77,0v-3.9a16.39,16.39,0,1,0-32.77,0Z" style="fill:#fff"></path><circle cx="109.32" cy="115.49" r="19.64" transform="translate(-38.39 174.4) rotate(-68.31)" style="fill:#ebebeb"></circle><path d="M119.34,117.94c-3,6-10,9.54-10,9.54s-7.06-3.55-10-9.54c-2.47-5-.91-10.38,3-11.56,5.59-1.69,7,8.05,7,8.05s1.43-9.74,7-8.05C120.25,107.56,121.81,113,119.34,117.94Z" style="fill:#fff"></path><g id="freepik--xsrjP0--inject-15"><path d="M73.36,228.7c-1.24-.77-2.31-1.89-4-1.72-.63.06-.49-.46-.5-.81q0-9.3-.07-18.58c0-.46,0-.83.51-1.07,4.73-2.41,6.76-7.11,9.65-11.13a18.54,18.54,0,0,0,3.39-14.07c-.21-1.4.44-2,1.7-2.31,1.51-.35,3,.06,3.54,1.1a25,25,0,0,1,2.73,8.11c.28,2.35-.56,4.64-.84,7-.21,1.71-.6,3.39-.92,5.11.42.3.9.15,1.34.15l15.71-.05c2.2,0,3.29.63,3.6,2.09A4.21,4.21,0,0,1,107,207c-.39.19-1.1,0-1.14.63s.68.56,1,.81c1.9,1.29,1.56,4-.63,5.53-.52.38-1.55.21-1.57,1s1,.61,1.38,1c1.54,1.51.79,4.33-1.5,5.48a6.63,6.63,0,0,0-.91.36c-.26.17-.52.37,0,.73,2.27,1.61,2.23,3.86,0,5.51l-.68.5a4.45,4.45,0,0,1-2.75.61l-24.63.09A2.9,2.9,0,0,1,73.36,228.7Z" style="fill:#ebebeb;fill-rule:evenodd"></path><path d="M50,217.85c0-3.93,0-7.87,0-11.81,0-.8.07-1.19,1-1.19,4.81.05,9.6,0,14.4,0,1,0,1.09.31,1.09,1.15q0,11.88.09,23.77c0,1-.27,1.29-1.28,1.28-4.66,0-9.32,0-14,.05-1.16,0-1.32-.38-1.31-1.4C50,225.73,50,221.79,50,217.85Z" style="fill:#ebebeb;fill-rule:evenodd"></path></g><g id="freepik--xsrjp0--inject-15"><path d="M429,311.24c-.72-.45-1.35-1.11-2.32-1-.37,0-.29-.27-.3-.47q0-5.46,0-10.92c0-.27,0-.48.3-.63,2.78-1.41,4-4.17,5.67-6.53a10.91,10.91,0,0,0,2-8.27c-.12-.82.26-1.19,1-1.36a1.83,1.83,0,0,1,2.08.65,14.71,14.71,0,0,1,1.6,4.76,17.88,17.88,0,0,1-.49,4.1c-.13,1-.36,2-.54,3,.24.17.53.08.79.08l9.22,0c1.3,0,1.93.36,2.11,1.22a2.45,2.45,0,0,1-1.33,2.67c-.23.12-.64,0-.67.37s.4.33.62.48c1.11.76.91,2.33-.37,3.25-.31.22-.91.12-.93.57s.56.36.81.61a2.08,2.08,0,0,1-.88,3.22,5,5,0,0,0-.54.21c-.15.11-.3.22,0,.43,1.33,1,1.31,2.27,0,3.24l-.4.29a2.54,2.54,0,0,1-1.61.36l-14.47,0A1.71,1.71,0,0,1,429,311.24Z" style="fill:#ebebeb;fill-rule:evenodd"></path><path d="M415.22,304.87c0-2.31,0-4.63,0-6.94,0-.47,0-.7.62-.69q4.23,0,8.46,0c.55,0,.64.18.64.67q0,7,0,14c0,.59-.16.76-.75.76-2.74,0-5.47,0-8.21,0-.68,0-.77-.23-.77-.82C415.26,309.49,415.23,307.18,415.22,304.87Z" style="fill:#ebebeb;fill-rule:evenodd"></path></g><path d="M402,214.51h-2.87a3.22,3.22,0,0,1-3.25-3.25,3.26,3.26,0,0,1,3.25-3.25h4L405,197.13h-3.63a3.26,3.26,0,0,1,0-6.51h4.76l1.24-7.44a3.2,3.2,0,0,1,3.26-2.69,3.34,3.34,0,0,1,3.25,3.82l-1.12,6.31h9.81l1.26-7.44a3.21,3.21,0,0,1,3.31-2.69,3.3,3.3,0,0,1,3.19,3.82l-1.07,6.31h2.89a3.27,3.27,0,0,1,3.24,3.25,3.31,3.31,0,0,1-3.24,3.26h-4L426.26,208h3.56a3.22,3.22,0,0,1,3.25,3.25,3.26,3.26,0,0,1-3.25,3.25h-4.69l-1.31,7.69a3.23,3.23,0,0,1-3.26,2.69,3.3,3.3,0,0,1-3.25-3.81l1.19-6.57h-9.82l-1.32,7.69a3.25,3.25,0,0,1-3.3,2.69,3.2,3.2,0,0,1-3.19-3.81Zm17.59-6.5,1.88-10.88h-9.77L409.81,208Z" style="fill:#ebebeb"></path><path d="M108.66,309.19A24.05,24.05,0,0,1,143.17,331c-.09.27-.18,4.57-3.28,7.39a5.1,5.1,0,0,1-1.16.72,4.63,4.63,0,0,1-4.3.07A5.87,5.87,0,0,1,132,336.7l-1-2.08a11.64,11.64,0,0,1-6.09,7.56c-6.06,3-13.55.12-16.65-6.18s-.73-13.85,5.33-16.83S127,319,130,325.28l.24.49.15.31,4.43,9,.06,0a3.17,3.17,0,0,0,1,1.17,1.38,1.38,0,0,0,1.31-.12l.49-.24c1.63-1.33,2-4.19,2-4.92a19.34,19.34,0,0,0-2.11-9.39,20.57,20.57,0,1,0-9.33,27.55,18.35,18.35,0,0,0,4.35-2.74,1.44,1.44,0,0,1,2.23.2,1.49,1.49,0,0,1-.17,2.28,23.43,23.43,0,0,1-4.93,3.26,23.91,23.91,0,1,1-21.11-42.9ZM123.32,339c4.23-2.08,6-7.53,3.71-12.25s-7.77-6.67-12-4.59-5.9,7.62-3.62,12.27S119,341.1,123.32,339Z" style="fill:#ebebeb"></path></g><g id="freepik--Shadow--inject-15"><ellipse cx="250" cy="439.56" rx="205.47" ry="26.47" style="fill:#ebebeb"></ellipse></g><g id="freepik--Plants--inject-15"><path d="M103.07,343.67c-5,.18-10.69.47-14.87-2.81-3.86-3-7.31-7.53-6.79-12.7.14-1.48.48-2.39,2.06-1.76,2.41,1,4.27,3.62,5.94,5.48a51.2,51.2,0,0,0,7,6.65c1.8,1.38,3.74,2.57,5.57,3.9q.34.24.69.51l.26.2h.14a.27.27,0,0,1,.21.11.19.19,0,0,1,0,.09A.27.27,0,0,1,103.07,343.67Z" style="fill:#455a64"></path><path d="M103.32,343.34c-4.44-.08-9.23.12-12.79-2.89a20.91,20.91,0,0,1-4.12-5c-.51-.84-2-3.33-1.41-4.32,1.15-1.79,6.44,5.52,7.17,6.22a21.73,21.73,0,0,0,9.81,5.09q.34.24.69.51a24,24,0,0,1-7.37-2.83c-3.15-1.88-4.9-4.66-7.37-7.25-.53-.56-2.14-2.45-2.74-1.28-.4.78,1.08,3.22,1.41,3.74a20.53,20.53,0,0,0,3.89,4.76c3.54,3.09,8.31,3,12.79,3.17A.19.19,0,0,1,103.32,343.34Z" style="fill:#fff"></path><path d="M105.85,346.75l-.12.59h0a.15.15,0,0,1-.09.11.22.22,0,0,1-.27-.1.15.15,0,0,1,0-.13s0-.05,0-.08l.06-.17h0s0,0,0-.06c-.89-3.34-1.24-6.82-2.18-10.16s-2-6.32-2.67-9.58c-.41-2.05-1.84-12.36,2.7-11.08,2,.58,3.39,3.49,4.16,5.23a21.2,21.2,0,0,1,1.67,7.4C109.43,335,107.13,340.73,105.85,346.75Z" style="fill:#455a64"></path><path d="M107.31,333.92a24.89,24.89,0,0,0-.73-7c-.2-.79-1.19-4.58-2.47-4.49-.83.05-1,1.69-1,2.23-.29,2.3.45,4.64.9,6.87a95.19,95.19,0,0,1,1.66,13.76c0,.29-.08.59-.11.88s-.07.48-.1.73l0,.25c0,.06,0,.12,0,.19a.22.22,0,0,0,.26.11c0-.19.06-.38.08-.57,0,.16,0,.31,0,.46a0,0,0,0,0,0,0l.09-.48a.43.43,0,0,0,0-.11c0-.26,0-.52,0-.77A102.31,102.31,0,0,0,107.31,333.92Zm-1.54,10.4c-.12-2.7-.39-5.39-.77-8.07-.31-2.16-.71-4.3-1.17-6.43a22.38,22.38,0,0,1-.58-3.65c0-.93.1-4.41,1.89-2.26,1.29,1.57,1.61,4.9,1.76,6.81a35.1,35.1,0,0,1-.12,6.4C106.53,339.53,106.13,341.93,105.77,344.32Z" style="fill:#fff"></path><path d="M108.57,360.61h0a.82.82,0,0,1-.18,0c-4.62-.23-10.78.2-14.62-2.85-2.83-2.26-5.62-6.72-4.73-10.5,1-4.27,6.79.85,8.31,2.08a142,142,0,0,1,11.32,11l.06.09h0C108.78,360.55,108.68,360.59,108.57,360.61Z" style="fill:#455a64"></path><path d="M108.73,360.48l-.79-.5c-3-1.92-6-4-8.84-6.14-.72-.55-5.92-5.18-6.71-3.53-.47,1,1.25,3,1.8,3.73a14.12,14.12,0,0,0,3.5,3.13c3.08,1.92,6.82,2.34,10.3,3.26l.49.12.09.06h0C108.68,360.59,108.77,360.55,108.73,360.48Zm-9.13-2.63a14.41,14.41,0,0,1-4-2.7c-.77-.73-3.51-3.5-2.78-4.63.39-.61.71-.28,1.44.08a8.57,8.57,0,0,1,1,.56c.78.51,1.49,1.1,2.21,1.67,1.27,1,2.55,2,3.87,3,2.14,1.56,4.35,3,6.61,4.44C105.16,359.37,102.24,359,99.6,357.85Z" style="fill:#fff"></path><path d="M117,351.1a27.36,27.36,0,0,1-7.91,13.82.2.2,0,0,1-.09.05.21.21,0,0,1-.24-.09.19.19,0,0,1,0-.26l.23-.24c.77-6.28,1.61-12.52,2.25-18.82.16-1.48,1.32-10.92,4.22-9.39,1.79.95,1.91,4.82,2.06,6.56A27.37,27.37,0,0,1,117,351.1Z" style="fill:#455a64"></path><path d="M115.33,342.68c-.15-.53-.43-1.07-1-.7-1.13.71-1.58,5.15-1.76,6.38-.78,5.06-2,9.93-3.2,14.89l-.3,1.26-.29.37a.21.21,0,0,0,.24.09.65.65,0,0,1,0-.13c.12-.16.26-.33.37-.5h0a32.45,32.45,0,0,0,4.58-8.91,30.71,30.71,0,0,0,1.34-6.21C115.56,347.27,115.92,344.58,115.33,342.68ZM109.41,364l-.17.25c.05-.17.1-.33.15-.51a90.9,90.9,0,0,0,2.83-11.52c.34-2,.55-4,1-5.94.18-.83.58-3.21,1.27-3.59s.68.54.75,1.07,0,1.08,0,1.44A31.82,31.82,0,0,1,109.41,364Z" style="fill:#fff"></path><path d="M109.86,378.46h-.92c0-.81,0-1.63-.06-2.43-.11-3.28-.24-6.57-.44-9.85-.11-1.87-.24-3.72-.43-5.56a1.37,1.37,0,0,1,0-.19c0-.15,0-.3,0-.45s0-.33-.07-.49a39.85,39.85,0,0,0-3.17-12.06c-.59-1.27-1.23-2.52-1.9-3.76l-.2-.35a.41.41,0,0,0,0-.09c-.06-.13-.13-.25-.2-.37s-.11-.18-.16-.27c-2.14-3.76-4.58-7.36-6.9-11q-1-1.56-2-3.12a1,1,0,0,1-.12-.19l-.15-.23c-2.91-4.59-5.77-9.23-8.8-13.74-.11-.16.16-.31.27-.14,2,3,4.16,5.93,6.25,8.89.29.39.56.79.84,1.18q.84,1.17,1.65,2.34c1.1,1.57,2.18,3.13,3.24,4.72a133.89,133.89,0,0,1,8.5,13.76c.18.36.35.72.53,1.09s.22.45.31.68l.36.79a42.67,42.67,0,0,1,3.11,14.55l.06,1.05c0,.15,0,.32,0,.48a2.11,2.11,0,0,0,0,.26c0,.11,0,.22,0,.34h0c0,.07,0,.16,0,.25,0,.29,0,.59,0,.9.13,3.28.22,6.56.29,9.83C109.78,376.36,109.82,377.41,109.86,378.46Z" style="fill:#455a64"></path><path d="M82.29,319c-2.52-3.4-5.77-10.41-2-14.06a4,4,0,0,1,5.28-.39c2,1.42,2.86,4.11,3.49,6.34,1.71,5.95,2.84,12,5,17.84,0,0,.18.5.23.63s-.15.17-.2.05l-.21-.57C89.79,326,85.29,323.06,82.29,319Z" style="fill:#455a64"></path><path d="M94,328.77l-.06-.1a41.43,41.43,0,0,1-2.37-4.4A84.86,84.86,0,0,1,88,314.53c-.41-1.27-2.22-7.52-4.46-5-.93,1.05-.8,2.9-.65,4.19a15.61,15.61,0,0,0,1.94,5.85c2,3.61,5.12,6.34,8.39,8.77l.45.34.09.16a.61.61,0,0,0,.07.1.07.07,0,0,0,0,0,.14.14,0,0,0,.2-.08A.2.2,0,0,0,94,328.77Zm-1-.69a33.2,33.2,0,0,1-7.11-7.14,17.57,17.57,0,0,1-2.32-4.72,13.87,13.87,0,0,1-.5-2.3,9.3,9.3,0,0,1-.1-1.75c0-1.29.57-2.69,1.33-2.82.94-.17,1.25.37,1.87,1.45a10.68,10.68,0,0,1,.55,1.13,29.81,29.81,0,0,1,1,3c.53,1.65,1.06,3.3,1.66,4.93.39,1.1.83,2.2,1.29,3.27a43.56,43.56,0,0,0,2.78,5.39Z" style="fill:#fff"></path><path d="M399.44,328.53c-.42,3.38-1.06,6.71-1.74,10-.39,1.88-.8,3.76-1.18,5.66-.42,2.08-1,4.2-.47,6.29h0a1.52,1.52,0,0,1,0,.29s0,0,0,0a.26.26,0,0,1-.44-.08.57.57,0,0,0,0-.14l0-.05a8.58,8.58,0,0,1-.73-1.74,46,46,0,0,1-1.67-4.88,42,42,0,0,1-1.64-10.39,35.48,35.48,0,0,1,1-9.36c.6-2.45,1.46-6.1,3.28-8,1.66-1.69,3,1,3.51,2.4C400.35,321.75,399.83,325.35,399.44,328.53Z" style="fill:#455a64"></path><path d="M396.42,321.38c-1.23,0-2.12,4-2.56,5.69a34.39,34.39,0,0,0-1.05,8.27A44.27,44.27,0,0,0,395.36,350c.06.19.12.39.19.58l0,0a.57.57,0,0,1,0,.14.25.25,0,0,0,.44.07c-.08-.41-.14-.82-.19-1.23s-.08-.75-.11-1.12a59,59,0,0,1,.76-12.15C397.11,331.65,398.05,321.39,396.42,321.38Zm-.88,27.92c.06.54.15,1.08.25,1.62-.13-.4-.25-.79-.37-1.18a49.24,49.24,0,0,1-2.32-13,35.33,35.33,0,0,1,.54-7.4,31.86,31.86,0,0,1,1-3.88c.17-.53,1.06-3.85,1.82-3.69.53.12.66,3.11.67,3.17,0,.6,0,1.2,0,1.81,0,1.23-.1,2.47-.2,3.7-.24,2.67-.62,5.33-.94,8A46.14,46.14,0,0,0,395.54,349.3Z" style="fill:#fff"></path><path d="M418.79,337.84c-2.25,4.4-6.05,7.77-10,10.66-2.1,1.55-4.28,3-6.42,4.49a35.33,35.33,0,0,0-5.54,4.27l-.21.23a9.24,9.24,0,0,0-1.15,1.58c0,.05-.06.07-.1.07s-.05.13-.08.19-.09,0-.08,0,0-.15,0-.22v0a.15.15,0,0,1,0-.17l0-.07,0-.22c.64-5.14,4.24-10.34,7.28-14.3s6.8-7.46,11.5-9.28c1.18-.45,3.86-1.7,5.07-.74S419.27,336.91,418.79,337.84Z" style="fill:#455a64"></path><path d="M415.31,337.86c-1.08-1.07-4.23,1.58-5,2.2a51.57,51.57,0,0,0-6.53,6.35,46.88,46.88,0,0,0-8.34,12.06h0l-.11.14a1.92,1.92,0,0,0,0,.22.25.25,0,0,0,0,.07.13.13,0,0,0,0,.17l.15-.18c.39-.48.81-.95,1.23-1.41l.21-.23a101.68,101.68,0,0,1,9.77-8.62,49.09,49.09,0,0,0,6.49-6.32C413.61,341.72,416.21,338.76,415.31,337.86Zm-1,2.36c-2.66,4.42-7.27,7.64-11.19,10.86a53.4,53.4,0,0,0-7.43,7.06,50.09,50.09,0,0,1,7.71-10.86,69.94,69.94,0,0,1,5.3-5.45,27.57,27.57,0,0,1,3.22-2.58,10.61,10.61,0,0,1,2.18-1.17C415.6,337.64,414.77,339.46,414.32,340.22Z" style="fill:#fff"></path><path d="M394.78,369.55a.26.26,0,0,1-.23.13l.06.08a.08.08,0,0,1,0,.11.07.07,0,0,1-.11,0c-4.17-4.24-8.19-9.4-10.27-15a23.43,23.43,0,0,1-1.49-7.4c0-1.73-.13-5.22,1.35-6.48,3-2.54,5.7,8.22,6.1,9.84.74,3,1.23,6,1.91,8.94.74,3.25,1.73,6.44,2.7,9.63A.2.2,0,0,1,394.78,369.55Z" style="fill:#455a64"></path><path d="M394.78,369.55c-.17-.27-.32-.55-.47-.83a50.14,50.14,0,0,1-5.37-14.45,46.35,46.35,0,0,0-2-7.53c-.25-.59-1-2.89-2-1.73-.51.61-.08,4.95.12,6.07a32,32,0,0,0,2.42,7.39,52.21,52.21,0,0,0,6.83,11.1l.24.3a.08.08,0,0,0,0-.11.28.28,0,0,1-.06-.08A.26.26,0,0,0,394.78,369.55Zm-6-9.25a36.15,36.15,0,0,1-2.87-7.17,25.11,25.11,0,0,1-.63-3,16.32,16.32,0,0,1-.2-2.41c0-2,.17-2.47.5-2.54s.49.17,1.07,1.35a13.42,13.42,0,0,1,.83,2.38c.31,1.16.57,2.33.83,3.5.5,2.34,1,4.7,1.66,7a39,39,0,0,0,4.14,9.4A60.05,60.05,0,0,1,388.73,360.3Z" style="fill:#fff"></path><path d="M408.15,359.24a14.68,14.68,0,0,1-2.73,5.68c-2.48,3.42-5.64,6.27-8.35,9.5-.4.48-.79,1-1.17,1.48,0,.05-.36.77-.35.71s.05-.29.14-.75h0c.43-2.27,1.85-9.1,3.63-12.6a30,30,0,0,1,3.95-6.18c.77-.87,2.57-2.74,3.92-2.33S408.36,358.15,408.15,359.24Z" style="fill:#455a64"></path><path d="M406,357.85c-1.45-.9-5.18,5.77-5.68,6.63A42.3,42.3,0,0,0,396,374.66c-.12.39-.22.79-.32,1.2s-.15.73-.15.75.32-.65.36-.72l.19-.26c.32-.41.65-.82,1-1.21,1.62-2.43,3.29-4.83,4.86-7.3a38.56,38.56,0,0,0,3-5.54C405.14,361.14,406.58,358.24,406,357.85Zm-.41,1.88c-2.06,5.8-6.27,10.38-9.48,15.53l-.15.25c0-.15.08-.31.13-.46a48.81,48.81,0,0,1,3.4-8.47,47.1,47.1,0,0,1,2.87-4.77,23.25,23.25,0,0,1,1.78-2.48c.3-.33,1.16-1.2,1.45-1.05S405.67,359.35,405.54,359.73Z" style="fill:#fff"></path><path d="M422.7,311.35c-4.31,9.89-15.6,14.49-20.5,24,0,0,0,0,0,0-.15.29-.29.59-.43.89a.19.19,0,0,1-.32.05.13.13,0,0,1,0-.16,2.14,2.14,0,0,1,.1-.22,51.54,51.54,0,0,1,6-17.31c2.48-4.55,5.86-8.82,10.55-11.22,1.16-.59,3.41-1.84,4.71-.86S423.23,310.13,422.7,311.35Z" style="fill:#455a64"></path><path d="M418.82,311.78c-.55-.41-1.38.08-1.85.32a16.55,16.55,0,0,0-3.26,2.24,27.16,27.16,0,0,0-5.21,6.19A56.92,56.92,0,0,0,402.36,333c-.32,1-.61,2-.85,3,0,.12-.05.25-.09.37a.2.2,0,0,0,.33-.05c.13-.29.27-.57.41-.86l0-.08a32.73,32.73,0,0,1,3.07-5.63,78.36,78.36,0,0,1,6.44-7.64C412.59,321.12,420.72,313.16,418.82,311.78Zm-.69,2.28c-1.3,2.33-3.33,4.22-5.1,6.2s-3.6,4-5.35,6a37.6,37.6,0,0,0-3.77,5.15,29.23,29.23,0,0,0-2.35,4.76,39.5,39.5,0,0,1,1.68-4.95l0-.05a72.67,72.67,0,0,1,4.18-8.32l.05-.1a34,34,0,0,1,4.76-6.65,20.26,20.26,0,0,1,3.39-2.88c1.42-.92,2.66-1.51,3-1.06S418.52,313.38,418.13,314.06Z" style="fill:#fff"></path><path d="M407.67,322.94c-1.3,2.79-2.53,5.61-3.76,8.45-.57,1.33-1.15,2.66-1.71,4l0,.08c-.2.48-.41,1-.62,1.44-1.86,4.34-3.91,8.78-5.05,13.38a40.66,40.66,0,0,0-1,7.43c0,.25,0,.51,0,.77h0c0,.14,0,.28,0,.42a1.93,1.93,0,0,0,0,.24c-.07,2.17,0,4.34,0,6.46.05,2.95.3,5.88.58,8.8a1.22,1.22,0,0,0,0,.26c0,.13,0,.26,0,.39s0,.14,0,.21l0,.37c.1.94.18,1.88.26,2.83h-.9a60.1,60.1,0,0,1-1.09-8.71,1,1,0,0,1,0-.18c0-.28,0-.57,0-.85s0-.7-.05-1.05c0-.84-.05-1.68-.07-2.51a62,62,0,0,1,1-14.58c0-.13.07-.26.1-.39a1,1,0,0,1,0-.17c0-.09,0-.18.06-.28l.12-.44c.07-.27.15-.54.22-.8l.07-.23a94.14,94.14,0,0,1,5-12c.33-.72.65-1.42,1-2.12.19-.4.38-.79.56-1.18l.88-1.77,0-.05c1.38-2.78,2.81-5.53,4.18-8.32C407.51,322.71,407.73,322.81,407.67,322.94Z" style="fill:#455a64"></path></g><g id="freepik--Floor--inject-15"><polygon points="44.45 378.19 95.84 377.95 147.23 377.86 250 377.69 352.77 377.86 404.16 377.94 455.55 378.19 404.16 378.44 352.77 378.52 250 378.69 147.23 378.52 95.84 378.43 44.45 378.19" style="fill:#263238"></polygon></g><g id="freepik--Device--inject-15"><path d="M337.28,56.16H162.7a17.83,17.83,0,0,0-17.66,18V433.56a17.84,17.84,0,0,0,17.66,18H337.28a17.85,17.85,0,0,0,17.68-18V74.15A17.84,17.84,0,0,0,337.28,56.16Zm6.64,366.29c0,9.46-7.08,17.11-15.82,17.11H171.91c-8.76,0-15.84-7.65-15.84-17.11V87.77c0-19.27,7.08-20.21,15.84-20.21h31.28c1.82,0,3.31,2.07,3.31,4.63V73.3c0,6,3.28,6,7.32,6h72.35c4.07,0,7.32,0,7.32-6V72.19c0-2.56,1.47-4.63,3.32-4.63H328.1c8.74,0,15.82,2.57,15.82,20.21Z" style="fill:#263238"></path><path d="M259.86,71.82H240.13a1.21,1.21,0,0,1-1.22-1.22h0a1.22,1.22,0,0,1,1.22-1.22h19.73a1.22,1.22,0,0,1,1.22,1.22h0A1.21,1.21,0,0,1,259.86,71.82Z" style="fill:#fff"></path><path d="M343.93,87.77V422.45c0,9.46-7.09,17.11-15.83,17.11H171.91c-8.76,0-15.84-7.65-15.84-17.11V87.77c0-19.27,7.08-20.21,15.84-20.21h31.28c1.82,0,3.31,2.07,3.31,4.63V73.3c0,6,3.28,6,7.32,6h72.35c4.07,0,7.33,0,7.33-6V72.19c0-2.56,1.46-4.63,3.31-4.63H328.1C336.84,67.56,343.93,70.13,343.93,87.77Z" style="fill:#fff"></path><path d="M343.92,87.77v7.15H156.06V87.77c0-19.27,7.09-20.21,15.85-20.21H203.2c1.82,0,3.3,2.07,3.3,4.63V73.3c0,6,3.29,6,7.32,6h72.35c4.07,0,7.33,0,7.33-6V72.19c0-2.56,1.47-4.63,3.32-4.63H328.1C336.84,67.56,343.92,70.13,343.92,87.77Z" style="fill:#FBAF08"></path><g id="freepik--u5Zjqx--inject-15"><path d="M197.8,75.08l-.31.3a1.37,1.37,0,0,1-.17.17,4.13,4.13,0,0,0-2.91-1.21,4.05,4.05,0,0,0-2.92,1.22,1.29,1.29,0,0,0-.16-.17l-.3-.3h0c.12-.12.25-.23.38-.34a4.57,4.57,0,0,1,.88-.57,4.36,4.36,0,0,1,1.17-.39c.2,0,.39-.05.59-.08h.51l.4,0a4.48,4.48,0,0,1,1.08.26,4.74,4.74,0,0,1,.72.34,4.19,4.19,0,0,1,.7.49l.32.28Z" style="fill:#fff"></path><path d="M192.45,76.5,192,76a3.43,3.43,0,0,1,4.86,0l-.48.48a2.74,2.74,0,0,0-2-.81A2.78,2.78,0,0,0,192.45,76.5Z" style="fill:#fff"></path><path d="M195.89,77l-.48.47a1.43,1.43,0,0,0-1-.41,1.38,1.38,0,0,0-1,.42l-.48-.48A2.09,2.09,0,0,1,195.89,77Z" style="fill:#fff"></path><path d="M194.84,77.89a.43.43,0,0,1-.86,0,.43.43,0,0,1,.86,0Z" style="fill:#fff"></path></g><circle cx="169.56" cy="75.99" r="1.24" style="fill:#fff"></circle><path d="M172.24,76a1.25,1.25,0,1,1,1.24,1.25A1.25,1.25,0,0,1,172.24,76Z" style="fill:#fff"></path><circle cx="177.41" cy="75.99" r="1.24" style="fill:#fff"></circle><path d="M180.08,76a1.25,1.25,0,1,1,1.25,1.25A1.25,1.25,0,0,1,180.08,76Z" style="fill:#fff"></path><path d="M184,76a1.25,1.25,0,1,1,1.25,1.25A1.25,1.25,0,0,1,184,76Z" style="fill:#fff"></path><path d="M329.82,78.7H319.7V74h10.12Zm-9.62-.5h9.12V74.53H320.2Z" style="fill:#fff"></path><rect x="320.54" y="74.81" width="6.53" height="3.1" style="fill:#fff"></rect><rect x="329.84" y="75.11" width="0.9" height="2.51" style="fill:#fff"></rect><polygon points="184.61 403.81 183.19 403.81 183.19 410.37 180.52 410.37 180.52 407.03 175.79 407.03 175.79 410.37 173.12 410.37 173.12 403.81 171.69 403.81 178.15 397.13 184.61 403.81" style="fill:#ebebeb"></polygon><rect x="312.75" y="397.13" width="15.57" height="2.23" style="fill:#ebebeb"></rect><rect x="312.75" y="402.64" width="15.57" height="2.23" style="fill:#ebebeb"></rect><rect x="312.75" y="408.14" width="15.57" height="2.23" style="fill:#ebebeb"></rect><path d="M184.31,130.3a10.28,10.28,0,0,1-3,1.27,10.49,10.49,0,1,1,3-1.27Z" style="fill:#dbdbdb"></path><path d="M182,120.19A3.19,3.19,0,1,1,178.8,117,3.19,3.19,0,0,1,182,120.19Z" style="fill:#fff"></path><path d="M184.31,129v1.31a10.28,10.28,0,0,1-3,1.27,10.44,10.44,0,0,1-8-1.27V129a5.51,5.51,0,1,1,11,0Z" style="fill:#fff"></path><rect x="202.42" y="111.51" width="66.63" height="5.49" style="fill:#ebebeb"></rect><rect x="202.42" y="120.67" width="58.16" height="3.64" style="fill:#ebebeb"></rect><rect x="202.42" y="127.68" width="96.16" height="3.64" style="fill:#ebebeb"></rect><rect x="156.07" y="140.55" width="187.83" height="131.53" transform="translate(499.97 412.64) rotate(180)" style="fill:#ebebeb"></rect><path d="M178,177.94a15.56,15.56,0,1,0,15.56-15.56A15.57,15.57,0,0,0,178,177.94Z" style="fill:#dbdbdb"></path><polygon points="239.47 243.47 343.93 243.47 291.7 172.68 239.47 243.47" style="fill:#c7c7c7"></polygon><polygon points="198.53 243.81 284.76 243.81 241.65 197.71 198.53 243.81" style="fill:#dbdbdb"></polygon><rect x="156.07" y="243.75" width="187.83" height="28.34" style="fill:#dbdbdb"></rect><path d="M184.31,341.45a10.54,10.54,0,0,1-3,1.26,10.46,10.46,0,1,1,3-1.26Z" style="fill:#dbdbdb"></path><path d="M182,331.33a3.19,3.19,0,1,1-3.19-3.19A3.19,3.19,0,0,1,182,331.33Z" style="fill:#fff"></path><path d="M184.31,340.13v1.32a10.54,10.54,0,0,1-3,1.26,10.4,10.4,0,0,1-8-1.27v-1.31a5.51,5.51,0,1,1,11,0Z" style="fill:#fff"></path><rect x="202.42" y="322.65" width="85.69" height="5.49" style="fill:#ebebeb"></rect><rect x="202.42" y="331.81" width="109.39" height="3.64" style="fill:#ebebeb"></rect><rect x="202.42" y="338.82" width="37.26" height="3.64" style="fill:#ebebeb"></rect><rect x="156.07" y="351.7" width="187.83" height="32.13" style="fill:#ebebeb"></rect><path d="M208.22,383.83H178.94a15.55,15.55,0,0,1,29.28,0Z" style="fill:#dbdbdb"></path><path d="M168.69,287.5a6.22,6.22,0,1,1,7.51,4.57A6.21,6.21,0,0,1,168.69,287.5Z" style="fill:#ebebeb"></path><g id="freepik--xsrjp0--inject-15"><path d="M173.88,288.5c-.16-.1-.31-.25-.53-.23s-.06-.06-.06-.11v-2.48a.14.14,0,0,1,.07-.15c.63-.32.9-.94,1.29-1.48a2.48,2.48,0,0,0,.46-1.88c0-.18.06-.27.23-.31a.42.42,0,0,1,.47.15,3.33,3.33,0,0,1,.36,1.09,4.22,4.22,0,0,1-.11.93c0,.23-.09.45-.13.68.06,0,.12,0,.18,0h2.1c.29,0,.44.09.48.28a.56.56,0,0,1-.31.61s-.14,0-.15.08.09.08.14.11c.25.18.21.53-.09.74-.07.05-.2,0-.21.13s.13.08.19.14a.47.47,0,0,1-.21.73l-.12.05s-.07,0,0,.1a.41.41,0,0,1,0,.73l-.09.07a.59.59,0,0,1-.37.08h-3.29A.38.38,0,0,1,173.88,288.5Z" style="fill:#fff;fill-rule:evenodd"></path><path d="M170.76,287v-1.58c0-.11,0-.16.14-.16h1.93c.12,0,.14.05.14.16v3.17c0,.14,0,.18-.17.18h-1.87c-.15,0-.17-.06-.17-.19C170.77,288.09,170.76,287.57,170.76,287Z" style="fill:#fff;fill-rule:evenodd"></path></g><path d="M181.75,287.5a6.22,6.22,0,1,1,7.51,4.57A6.21,6.21,0,0,1,181.75,287.5Z" style="fill:#FBAF08"></path><path d="M191,286.8a7.94,7.94,0,0,1-3.17,3,7.93,7.93,0,0,1-3.18-3c-.78-1.58-.28-3.28.95-3.66,1.77-.53,2.23,2.55,2.23,2.55s.45-3.08,2.22-2.55C191.25,283.52,191.74,285.22,191,286.8Z" style="fill:#fff"></path><rect x="203.45" y="285.21" width="88.25" height="3.59" style="fill:#ebebeb"></rect><polygon points="156.07 306.65 179.55 306.47 203.03 306.4 249.99 306.27 296.94 306.4 320.42 306.46 343.9 306.65 320.42 306.83 296.94 306.9 249.99 307.02 203.03 306.9 179.55 306.83 156.07 306.65" style="fill:#ebebeb"></polygon></g><g id="freepik--speech-bubbles--inject-15"><polygon points="90.19 187.86 298.27 187.86 298.27 97.06 90.19 97.06 90.19 97.06 90.19 187.86 90.19 187.86" style="fill:#455a64"></polygon><polygon points="325.05 187.86 298.27 187.86 298.27 159.97 325.05 187.86" style="fill:#455a64"></polygon><rect x="106.76" y="112.76" width="174.95" height="1.73" style="fill:#fff"></rect><rect x="106.76" y="122.07" width="121.81" height="1.73" style="fill:#fff"></rect><rect x="106.76" y="140.71" width="153.9" height="1.73" style="fill:#fff"></rect><rect x="106.76" y="150.03" width="174.95" height="1.73" style="fill:#fff"></rect><rect x="106.76" y="159.34" width="174.95" height="1.73" style="fill:#fff"></rect><rect x="106.76" y="168.66" width="104.03" height="1.73" style="fill:#fff"></rect><polygon points="90.19 402.94 298.27 402.94 298.27 341.11 90.19 341.11 90.19 341.11 90.19 402.94 90.19 402.94" style="fill:#FBAF08"></polygon><polygon points="325.05 402.94 298.27 402.94 298.27 375.06 325.05 402.94" style="fill:#FBAF08"></polygon><rect x="106.76" y="355.8" width="153.9" height="1.73" style="fill:#fff"></rect><rect x="106.76" y="365.11" width="174.95" height="1.73" style="fill:#fff"></rect><rect x="106.76" y="374.43" width="174.95" height="1.73" style="fill:#fff"></rect><rect x="106.76" y="383.75" width="104.03" height="1.73" style="fill:#fff"></rect><rect x="201.73" y="207.22" width="208.08" height="80.08" style="fill:#dbdbdb"></rect><polygon points="174.95 287.3 201.73 287.3 201.73 259.41 174.95 287.3" style="fill:#dbdbdb"></polygon><rect x="218.63" y="249.03" width="160.71" height="1.73" style="fill:#fff"></rect><rect x="218.63" y="258.35" width="141.02" height="1.73" style="fill:#fff"></rect><rect x="218.63" y="230.39" width="146.76" height="1.73" style="fill:#fff"></rect><rect x="218.63" y="221.08" width="171.77" height="1.73" style="fill:#fff"></rect><rect x="218.63" y="267.66" width="148.91" height="1.73" style="fill:#fff"></rect><path d="M368.46,129.38c6.41-1.95,9.76-6.27,9.47-12.4-4-1.12-7.94-4.46-7.94-9.48v-1.11a9,9,0,0,1,9.49-9.33c6.12,0,10,4.73,10,12.25v1.4c0,9.47-2.5,16-7,20.34-3.63,3.76-9.06,6-13.11,6-2.92,0-4.31-1.67-4.31-3.9C365.12,131.19,366.51,129.93,368.46,129.38Zm-32.32,0c6.41-1.95,9.75-6.27,9.47-12.4-4-1.12-7.94-4.46-7.94-9.48v-1.11a9,9,0,0,1,9.47-9.33c6.14,0,10,4.73,10,12.25v1.4c0,9.47-2.51,16-6.83,20.34-3.77,3.76-9.2,6-13.1,6-2.93,0-4.46-1.67-4.46-3.9C332.79,131.19,334.18,129.93,336.14,129.38Z" style="fill:#455a64"></path></g></svg>