<svg version="1.1" id="Layer_1" xmlns="http://www.w3.org/2000/svg" xmlns:xlink="http://www.w3.org/1999/xlink" x="0px" y="0px"
	 width="100%" viewBox="0 0 676 465" enable-background="new 0 0 676 465" xml:space="preserve">
<path fill="#FFFFFF" opacity="1.000000" stroke="none" 
	d="
M495.000000,466.000000 
	C330.000000,466.000000 165.500000,466.000000 1.000000,466.000000 
	C1.000000,311.000000 1.000000,156.000000 1.000000,1.000000 
	C226.333328,1.000000 451.666656,1.000000 677.000000,1.000000 
	C677.000000,156.000000 677.000000,311.000000 677.000000,466.000000 
	C616.500000,466.000000 556.000000,466.000000 495.000000,466.000000 
M167.157608,346.318207 
	C229.802322,370.441040 298.758545,346.966919 333.615295,293.352814 
	C320.290192,288.999603 306.972046,284.865479 293.829224,280.233856 
	C289.411560,278.677063 286.741241,279.478485 283.467285,282.788788 
	C247.579529,319.074860 185.996597,318.043976 151.204376,280.757843 
	C118.575844,245.790436 117.810600,192.546066 149.419937,156.598740 
	C179.583038,122.296120 230.602142,115.072510 268.156647,139.961288 
	C273.528198,143.521225 278.342896,147.921356 283.620575,152.094955 
	C294.196320,141.214691 304.832306,130.272507 316.237701,118.538719 
	C315.240143,117.815605 313.609680,116.902878 312.306183,115.649986 
	C264.107666,69.323158 183.210449,66.309090 132.071411,109.385155 
	C85.834465,148.332031 69.930771,197.881607 85.392570,255.976669 
	C96.860603,299.065857 126.223289,327.890564 167.157608,346.318207 
M527.574890,355.791809 
	C539.152344,355.085876 550.221313,352.613373 560.627686,347.204712 
	C594.507141,329.595947 611.569763,292.685577 602.739685,255.517563 
	C595.030334,223.066971 562.160217,194.011139 524.728577,194.823044 
	C513.570129,195.065079 502.401001,194.933167 491.238098,194.826736 
	C477.587433,194.696609 463.902435,194.950745 450.298431,194.044983 
	C436.608734,193.133530 425.116608,182.342972 421.493591,168.577118 
	C417.992371,155.273987 422.727448,139.832260 433.860809,132.549591 
	C439.914795,128.589478 447.267212,126.614311 454.662201,123.477386 
	C454.662201,109.699501 454.662201,94.486099 454.662201,78.971779 
	C432.404205,79.145287 413.834625,86.903412 398.420502,102.494171 
	C367.244934,134.027023 366.017365,182.024597 395.898041,214.753571 
	C412.086914,232.485596 432.597870,240.629654 456.461121,240.653732 
	C478.288940,240.675751 500.117188,240.740646 521.944458,240.627945 
	C531.490112,240.578644 539.835876,243.096878 547.116089,249.612274 
	C564.718323,265.365326 561.838989,293.892151 541.018799,305.020599 
	C536.031738,307.686157 530.185059,308.743683 524.015076,310.777679 
	C524.015076,324.513062 523.978577,339.128998 524.127930,353.743103 
	C524.135071,354.440521 525.786255,355.121155 527.574890,355.791809 
M327.237549,194.846329 
	C291.043610,194.846329 254.849655,194.846329 218.595474,194.846329 
	C218.595474,210.482071 218.595474,225.350098 218.595474,240.393997 
	C219.916000,240.502899 220.887268,240.652283 221.858612,240.652908 
	C242.658722,240.666214 263.459747,240.749741 284.257568,240.532333 
	C286.408691,240.509872 289.006592,239.157928 290.608459,237.607788 
	C303.999939,224.648605 317.211914,211.503784 330.457367,198.394073 
	C331.329865,197.530502 332.032806,196.495605 333.382812,194.846237 
	C331.049347,194.846237 329.602173,194.846237 327.237549,194.846329 
M455.596924,406.199249 
	C456.788483,403.515503 457.980072,400.831726 459.171661,398.147949 
	C460.092102,404.349823 459.998199,410.176392 460.191162,415.993439 
	C460.220825,416.888367 461.570496,417.739471 462.309723,418.610840 
	C463.086487,417.764771 464.524414,416.929749 464.538788,416.070923 
	C464.699158,406.464386 464.640015,396.854248 464.640015,387.428436 
	C460.701111,385.780090 459.076447,387.214508 457.831360,390.443542 
	C455.010223,397.759888 451.849243,404.945221 448.371246,413.273834 
	C444.906555,404.913513 441.828979,397.768768 438.996429,390.528168 
	C437.670288,387.138184 435.892517,385.596008 432.088135,387.573853 
	C432.088135,396.687286 432.003784,405.835632 432.188507,414.978516 
	C432.213287,416.205170 433.596405,417.404388 434.350586,418.616302 
	C435.118866,417.443909 436.499329,416.297638 436.550659,415.094666 
	C436.787811,409.534424 436.655396,403.958405 436.655396,398.388062 
	C440.177551,403.851135 442.495605,409.611572 445.065796,415.257263 
	C445.666687,416.577057 447.407013,418.580658 448.124725,418.390259 
	C449.545380,418.013550 450.995789,416.530548 451.753448,415.135376 
	C453.172638,412.522003 454.107300,409.645538 455.596924,406.199249 
M103.238686,390.287567 
	C102.171051,389.117737 101.103424,387.947876 100.035782,386.778046 
	C99.099541,387.922272 97.717339,388.924927 97.301720,390.234375 
	C95.113838,397.127563 93.170021,404.098206 91.141487,411.041962 
	C88.461075,403.907135 86.638924,396.895569 85.015442,389.838318 
	C84.323730,386.831421 82.881660,386.064636 79.956306,387.404724 
	C82.332626,396.494537 84.578407,405.505402 87.124817,414.430511 
	C87.573273,416.002350 89.279320,417.215363 90.404587,418.594116 
	C91.660614,417.168701 93.482048,415.943726 94.071274,414.281891 
	C96.212021,408.244202 97.940147,402.060181 100.180115,394.772339 
	C101.066940,397.354523 101.566399,398.683899 101.981407,400.039124 
	C103.634331,405.436890 105.170654,410.873322 106.979515,416.217804 
	C107.310051,417.194458 108.660378,418.350372 109.631996,418.441437 
	C110.649185,418.536804 112.516571,417.656403 112.744431,416.845978 
	C115.505325,407.026306 118.031662,397.140717 120.699135,386.966644 
	C118.994514,386.966644 117.261536,386.725372 117.174622,387.001770 
	C114.677490,394.942657 112.345398,402.935455 109.902351,411.205078 
	C109.434105,410.587524 109.175896,410.383972 109.099876,410.126617 
	C107.218300,403.756958 105.355995,397.381653 103.238686,390.287567 
M168.157333,418.636475 
	C172.939774,418.091309 178.145935,418.126740 179.685791,412.077850 
	C180.875153,407.405762 179.165161,403.754059 174.923386,401.401367 
	C180.245346,394.896881 178.928940,388.159668 172.006775,387.163605 
	C167.355194,386.494263 162.529343,387.036163 157.343262,387.036163 
	C157.343262,394.464935 157.343277,401.570007 157.343277,408.675079 
	C157.343277,418.664001 157.343262,418.664001 168.157333,418.636475 
M504.181396,387.096680 
	C504.033661,396.204102 503.795837,405.311859 503.833893,414.418518 
	C503.839691,415.807983 505.122192,417.192139 505.814178,418.578735 
	C506.556183,417.220032 507.888977,415.882660 507.939026,414.498932 
	C508.168793,408.142761 508.040192,401.773621 508.040192,395.409149 
	C513.115784,402.147766 517.044617,409.194885 521.346436,416.006500 
	C522.175537,417.319305 524.465637,417.709351 526.081726,418.525024 
	C526.597046,417.115143 527.532471,415.712860 527.558105,414.294159 
	C527.702454,406.318817 527.526978,398.337738 527.672363,390.362457 
	C527.740173,386.639465 526.352722,385.962402 522.854858,387.645294 
	C522.854858,394.935547 522.854858,402.281128 522.854858,409.626709 
	C518.141663,403.160309 514.386047,396.386292 510.179688,389.904724 
	C509.183014,388.368988 506.674164,387.814636 504.181396,387.096680 
M210.895294,418.640594 
	C213.716797,418.464935 216.560287,418.454285 219.355591,418.081940 
	C227.019516,417.061157 231.786667,411.773468 232.291382,403.957092 
	C232.842300,395.425110 228.851624,389.145233 221.052963,387.493744 
	C216.785126,386.589905 212.268875,386.859131 207.369904,386.570190 
	C207.369904,396.861969 207.293915,406.332855 207.486053,415.798248 
	C207.505524,416.757721 209.140747,417.684387 210.895294,418.640594 
M377.298279,418.978577 
	C386.671753,417.354431 392.068665,411.650940 392.244293,403.183685 
	C392.407043,395.335541 387.451843,388.685669 380.160187,386.966766 
	C370.789764,384.757843 361.736542,390.701233 360.151855,400.102203 
	C358.494415,409.934357 365.554626,418.131409 377.298279,418.978577 
M315.356873,386.742279 
	C311.264160,386.742279 307.171417,386.742279 303.056030,386.742279 
	C303.056030,397.642670 303.056030,407.877960 303.056030,418.626312 
	C308.986603,418.626312 314.611908,418.734161 320.226471,418.536194 
	C321.360962,418.496155 322.454651,417.298798 323.567139,416.634979 
	C322.378296,415.881500 321.225983,414.557159 319.993927,414.478210 
	C315.774200,414.207825 311.526489,414.374512 307.286621,414.374512 
	C307.286621,410.504211 307.286621,407.410980 307.286621,403.892609 
	C311.474030,403.892609 315.443024,404.086060 319.371429,403.771851 
	C320.514160,403.680450 321.540894,402.138306 322.620819,401.261169 
	C322.313660,400.794586 322.006531,400.328033 321.699371,399.861481 
	C316.943146,399.861481 312.186920,399.861481 307.304077,399.861481 
	C307.304077,396.745300 307.304077,394.015778 307.304077,390.891754 
	C311.848328,390.891754 316.147522,391.036377 320.424408,390.791443 
	C321.512543,390.729126 322.529816,389.429718 323.579681,388.698761 
	C322.481293,388.046844 321.452942,387.128632 320.265259,386.816254 
	C319.020325,386.488800 317.622498,386.742798 315.356873,386.742279 
M146.688461,414.339386 
	C142.246735,414.339386 137.805008,414.339386 133.302216,414.339386 
	C133.302216,410.535919 133.302216,407.334656 133.302216,403.919830 
	C136.502548,403.919830 139.321884,403.921265 142.141205,403.919525 
	C147.714767,403.916107 147.714767,403.915375 147.473419,399.844482 
	C142.758301,399.844482 138.000305,399.844482 133.264572,399.844482 
	C133.264572,396.649445 133.264572,393.926910 133.264572,390.918640 
	C137.747925,390.918640 141.892273,390.825653 146.030167,390.949036 
	C149.155106,391.042206 149.732468,389.677399 148.854523,386.990723 
	C142.072098,386.990723 135.482178,386.990723 128.363617,386.990723 
	C128.363617,396.876099 128.288254,406.490875 128.491119,416.099823 
	C128.509506,416.971039 130.284256,418.490326 131.300522,418.540039 
	C136.450577,418.791901 141.620773,418.713806 146.780579,418.600189 
	C147.587891,418.582458 148.378128,417.787720 149.176270,417.352264 
	C148.617538,416.358643 148.058807,415.364990 146.688461,414.339386 
M476.020233,418.603058 
	C481.185364,418.617584 486.354767,418.747620 491.512329,418.557037 
	C492.653595,418.514832 493.752991,417.338928 494.871643,416.685028 
	C493.709717,415.908264 492.585999,414.539612 491.378906,414.461639 
	C487.125824,414.186768 482.844086,414.354767 478.585968,414.354767 
	C478.585968,410.475800 478.585968,407.393219 478.585968,403.904968 
	C482.863953,403.904968 486.847046,404.030853 490.811279,403.813660 
	C491.764679,403.761414 492.655762,402.571320 493.575531,401.904572 
	C492.665588,401.253540 491.781677,400.088135 490.841156,400.040466 
	C486.751129,399.833191 482.644623,399.951508 478.469727,399.951508 
	C478.469727,396.693481 478.469727,394.062469 478.469727,390.902893 
	C483.120331,390.902893 487.594543,391.021210 492.053131,390.809387 
	C493.018097,390.763519 493.926697,389.530731 494.861237,388.844604 
	C493.982391,388.141388 493.121368,386.856628 492.221832,386.829071 
	C486.280579,386.646851 480.331085,386.734924 474.096436,386.734924 
	C474.096436,396.826996 474.069275,406.310822 474.142212,415.793854 
	C474.148895,416.657471 474.797821,417.516174 476.020233,418.603058 
M244.942276,399.308685 
	C244.942276,396.695770 244.942276,394.082886 244.942276,390.930023 
	C249.440170,390.930023 253.726807,390.912628 258.013245,390.935791 
	C261.164520,390.952789 261.661194,389.502625 260.538605,387.098053 
	C253.716873,387.098053 247.151367,387.098053 240.315720,387.098053 
	C240.315720,396.816406 240.210388,406.133209 240.455139,415.440765 
	C240.484238,416.547485 242.363083,418.454651 243.489655,418.536102 
	C248.293930,418.883331 253.143753,418.811920 257.962341,418.584198 
	C259.022888,418.534058 260.023712,417.220947 261.052063,416.489441 
	C260.015930,415.765503 259.011749,414.477814 257.937988,414.416931 
	C253.681061,414.175415 249.402344,414.317627 244.957855,414.317627 
	C244.957855,410.571533 244.957855,407.500549 244.957855,403.932983 
	C248.171387,403.932983 251.131256,403.935272 254.091141,403.932495 
	C259.721161,403.927246 259.721161,403.926056 259.117004,399.835754 
	C254.702866,399.835754 250.225662,399.835754 244.942276,399.308685 
M413.159149,406.799408 
	C414.311981,406.652039 415.478638,406.573730 416.615295,406.345673 
	C422.295441,405.205902 424.523132,402.197052 424.311890,396.025635 
	C424.121948,390.476532 421.437775,387.412415 415.766510,387.042664 
	C411.008423,386.732422 406.214050,386.978882 401.120056,386.978882 
	C401.120056,396.770599 401.065613,406.228638 401.202942,415.683929 
	C401.216919,416.646484 402.383728,417.592285 403.015503,418.545837 
	C403.758667,417.552399 405.023865,416.617401 405.143005,415.554047 
	C405.448578,412.826660 405.245026,410.042236 405.245026,406.870605 
	C407.963318,406.870605 410.100891,406.870605 413.159149,406.799408 
M293.249634,392.873138 
	C293.935059,391.048035 294.620483,389.222931 295.305939,387.397827 
	C294.807892,386.990265 294.309845,386.582733 293.811798,386.175171 
	C292.527832,387.479248 290.688934,388.558807 290.054932,390.125824 
	C287.135742,397.341217 284.552612,404.692535 281.541107,412.826538 
	C278.506409,404.641907 275.703156,397.366913 273.137146,390.009186 
	C272.214142,387.362579 271.059021,385.940918 267.764618,387.359131 
	C271.250854,396.687531 274.661072,406.016663 278.279968,415.264099 
	C278.791595,416.571503 280.320465,417.480774 281.378510,418.574341 
	C282.562836,417.408661 284.266724,416.455048 284.843781,415.041443 
	C287.731476,407.967194 290.323914,400.772430 293.249634,392.873138 
M549.885132,398.554016 
	C549.885132,396.114716 549.885132,393.675446 549.885132,391.311188 
	C559.848389,390.219299 559.848389,390.219299 559.281921,386.969299 
	C551.504395,386.969299 543.721375,386.969299 535.949097,386.969299 
	C535.844482,389.849304 535.844482,389.849304 545.749451,391.459778 
	C545.749451,399.002563 545.651001,406.622467 545.835632,414.235535 
	C545.870972,415.691986 547.021240,417.121399 547.657166,418.563293 
	C548.399841,417.047699 549.692444,415.564087 549.782776,414.010559 
	C550.062622,409.200684 549.885071,404.364197 549.885132,398.554016 
M335.295349,386.723907 
	C334.283569,387.777832 332.425171,388.807526 332.394226,389.889496 
	C332.152039,398.355255 332.324768,406.831818 332.222321,415.303284 
	C332.190796,417.910645 333.185852,418.846405 335.744141,418.774780 
	C340.226166,418.649261 344.722809,418.893219 349.194397,418.643860 
	C350.474457,418.572479 351.689484,417.335541 352.934296,416.633026 
	C351.611969,415.842224 350.335205,414.479065 348.958649,414.369507 
	C345.055206,414.058807 341.110992,414.260620 336.741394,414.260620 
	C336.741394,410.811218 336.813141,408.018494 336.726654,405.230713 
	C336.538208,399.157043 336.269226,393.085876 335.295349,386.723907 
z"/>
<path fill="#31CFE0" opacity="1.000000" stroke="none" 
	d="
M166.797684,346.182922 
	C126.223289,327.890564 96.860603,299.065857 85.392570,255.976669 
	C69.930771,197.881607 85.834465,148.332031 132.071411,109.385155 
	C183.210449,66.309090 264.107666,69.323158 312.306183,115.649986 
	C313.609680,116.902878 315.240143,117.815605 316.237701,118.538719 
	C304.832306,130.272507 294.196320,141.214691 283.620575,152.094955 
	C278.342896,147.921356 273.528198,143.521225 268.156647,139.961288 
	C230.602142,115.072510 179.583038,122.296120 149.419937,156.598740 
	C117.810600,192.546066 118.575844,245.790436 151.204376,280.757843 
	C185.996597,318.043976 247.579529,319.074860 283.467285,282.788788 
	C286.741241,279.478485 289.411560,278.677063 293.829224,280.233856 
	C306.972046,284.865479 320.290192,288.999603 333.615295,293.352814 
	C298.758545,346.966919 229.802322,370.441040 166.797684,346.182922 
M274.563660,334.117645 
	C292.157501,325.625732 306.950104,313.694580 319.676178,297.976379 
	C310.087189,294.814331 301.307770,291.784729 292.415131,289.135132 
	C291.116302,288.748138 288.903137,289.762085 287.744049,290.819458 
	C263.582275,312.860657 235.323410,321.636475 202.999695,316.946503 
	C176.936325,313.164825 155.793472,300.603363 139.276031,280.188538 
	C109.272125,243.105072 110.034393,184.394363 145.329865,147.514343 
	C175.696732,115.784225 227.844620,106.622833 266.005585,128.445374 
	C272.024139,131.887115 277.623016,136.062698 282.737213,139.449493 
	C289.509583,132.646179 296.167786,125.957550 302.961792,119.132515 
	C302.104706,118.384193 300.898712,117.258774 299.619049,116.224487 
	C251.537888,77.362022 177.187592,77.432991 130.680191,121.948242 
	C105.540413,146.011154 90.418129,174.598572 88.877464,209.757828 
	C86.488556,264.274872 110.353226,305.091187 156.720657,331.566803 
	C194.399475,353.081207 234.369324,352.088531 274.563660,334.117645 
z"/>
<path fill="#30CFE0" opacity="1.000000" stroke="none" 
	d="
M527.123413,355.800720 
	C525.786255,355.121155 524.135071,354.440521 524.127930,353.743103 
	C523.978577,339.128998 524.015076,324.513062 524.015076,310.777679 
	C530.185059,308.743683 536.031738,307.686157 541.018799,305.020599 
	C561.838989,293.892151 564.718323,265.365326 547.116089,249.612274 
	C539.835876,243.096878 531.490112,240.578644 521.944458,240.627945 
	C500.117188,240.740646 478.288940,240.675751 456.461121,240.653732 
	C432.597870,240.629654 412.086914,232.485596 395.898041,214.753571 
	C366.017365,182.024597 367.244934,134.027023 398.420502,102.494171 
	C413.834625,86.903412 432.404205,79.145287 454.662201,78.971779 
	C454.662201,94.486099 454.662201,109.699501 454.662201,123.477386 
	C447.267212,126.614311 439.914795,128.589478 433.860809,132.549591 
	C422.727448,139.832260 417.992371,155.273987 421.493591,168.577118 
	C425.116608,182.342972 436.608734,193.133530 450.298431,194.044983 
	C463.902435,194.950745 477.587433,194.696609 491.238098,194.826736 
	C502.401001,194.933167 513.570129,195.065079 524.728577,194.823044 
	C562.160217,194.011139 595.030334,223.066971 602.739685,255.517563 
	C611.569763,292.685577 594.507141,329.595947 560.627686,347.204712 
	C550.221313,352.613373 539.152344,355.085876 527.123413,355.800720 
M527.302246,231.962173 
	C546.253174,233.018188 564.558594,249.587173 566.820557,268.315308 
	C570.359985,297.621124 552.483459,312.558716 533.117432,317.712799 
	C533.117432,327.107544 533.117432,336.528107 533.117432,345.934692 
	C541.476929,346.184174 553.858521,341.754669 563.924988,335.035706 
	C599.286987,311.433014 607.120789,262.552734 580.598572,230.464951 
	C565.579651,212.294434 546.242554,203.133240 522.598450,203.141312 
	C499.112122,203.149338 475.625458,203.144318 452.139587,203.021667 
	C443.346497,202.975739 435.547760,199.883392 428.709564,194.383347 
	C415.181580,183.502686 409.537903,169.180069 412.429321,152.323120 
	C415.403320,134.984497 425.821838,123.380203 442.958313,118.172882 
	C444.219421,117.789642 446.070770,116.357712 446.097687,115.371025 
	C446.341827,106.422432 446.240784,97.464424 446.240784,88.248726 
	C427.931335,90.182251 413.824127,98.498962 401.860779,111.518997 
	C373.689575,142.178528 377.596710,190.803070 410.489990,216.453613 
	C424.023743,227.007355 439.317322,231.911285 456.387695,231.870071 
	C479.707336,231.813766 503.027313,231.903717 527.302246,231.962173 
z"/>
<path fill="#30CFE0" opacity="1.000000" stroke="none" 
	d="
M327.696289,194.846283 
	C329.602173,194.846237 331.049347,194.846237 333.382812,194.846237 
	C332.032806,196.495605 331.329865,197.530502 330.457367,198.394073 
	C317.211914,211.503784 303.999939,224.648605 290.608459,237.607788 
	C289.006592,239.157928 286.408691,240.509872 284.257568,240.532333 
	C263.459747,240.749741 242.658722,240.666214 221.858612,240.652908 
	C220.887268,240.652283 219.916000,240.502899 218.595474,240.393997 
	C218.595474,225.350098 218.595474,210.482071 218.595474,194.846329 
	C254.849655,194.846329 291.043610,194.846329 327.696289,194.846283 
M253.500000,231.858566 
	C262.479797,231.858505 271.462585,231.980652 280.437042,231.761993 
	C282.382538,231.714584 284.776642,230.949844 286.148987,229.652954 
	C294.244049,222.002731 302.108459,214.107880 310.016449,206.261063 
	C310.737762,205.545303 311.218750,204.587357 312.004120,203.466797 
	C283.424194,203.466797 255.421280,203.466797 227.332428,203.466797 
	C227.332428,213.007156 227.332428,222.218643 227.332428,231.858429 
	C235.937897,231.858429 244.218948,231.858429 253.500000,231.858566 
z"/>
<path fill="#3B6A92" opacity="1.000000" stroke="none" 
	d="
M455.420227,406.538879 
	C454.107300,409.645538 453.172638,412.522003 451.753448,415.135376 
	C450.995789,416.530548 449.545380,418.013550 448.124725,418.390259 
	C447.407013,418.580658 445.666687,416.577057 445.065796,415.257263 
	C442.495605,409.611572 440.177551,403.851135 436.655396,398.388062 
	C436.655396,403.958405 436.787811,409.534424 436.550659,415.094666 
	C436.499329,416.297638 435.118866,417.443909 434.350586,418.616302 
	C433.596405,417.404388 432.213287,416.205170 432.188507,414.978516 
	C432.003784,405.835632 432.088135,396.687286 432.088135,387.573853 
	C435.892517,385.596008 437.670288,387.138184 438.996429,390.528168 
	C441.828979,397.768768 444.906555,404.913513 448.371246,413.273834 
	C451.849243,404.945221 455.010223,397.759888 457.831360,390.443542 
	C459.076447,387.214508 460.701111,385.780090 464.640015,387.428436 
	C464.640015,396.854248 464.699158,406.464386 464.538788,416.070923 
	C464.524414,416.929749 463.086487,417.764771 462.309692,418.610840 
	C461.570496,417.739471 460.220825,416.888367 460.191162,415.993439 
	C459.998199,410.176392 460.092102,404.349823 459.171661,398.147949 
	C457.980072,400.831726 456.788483,403.515503 455.420227,406.538879 
z"/>
<path fill="#32628C" opacity="1.000000" stroke="none" 
	d="
M103.364479,390.647461 
	C105.355995,397.381653 107.218300,403.756958 109.099876,410.126617 
	C109.175896,410.383972 109.434105,410.587524 109.902351,411.205078 
	C112.345398,402.935455 114.677490,394.942657 117.174622,387.001770 
	C117.261536,386.725372 118.994514,386.966644 120.699135,386.966644 
	C118.031662,397.140717 115.505325,407.026306 112.744431,416.845978 
	C112.516571,417.656403 110.649185,418.536804 109.631996,418.441437 
	C108.660378,418.350372 107.310051,417.194458 106.979515,416.217804 
	C105.170654,410.873322 103.634331,405.436890 101.981407,400.039124 
	C101.566399,398.683899 101.066940,397.354523 100.180115,394.772339 
	C97.940147,402.060181 96.212021,408.244202 94.071274,414.281891 
	C93.482048,415.943726 91.660614,417.168701 90.404594,418.594116 
	C89.279320,417.215363 87.573273,416.002350 87.124817,414.430511 
	C84.578407,405.505402 82.332626,396.494537 79.956306,387.404724 
	C82.881660,386.064636 84.323730,386.831421 85.015442,389.838318 
	C86.638924,396.895569 88.461075,403.907135 91.141487,411.041962 
	C93.170021,404.098206 95.113838,397.127563 97.301720,390.234375 
	C97.717339,388.924927 99.099541,387.922272 100.035789,386.778046 
	C101.103424,387.947876 102.171051,389.117737 103.364479,390.647461 
z"/>
<path fill="#3C6A92" opacity="1.000000" stroke="none" 
	d="
M167.707809,418.644958 
	C157.343262,418.664001 157.343277,418.664001 157.343277,408.675079 
	C157.343277,401.570007 157.343262,394.464935 157.343262,387.036163 
	C162.529343,387.036163 167.355194,386.494263 172.006775,387.163605 
	C178.928940,388.159668 180.245346,394.896881 174.923386,401.401367 
	C179.165161,403.754059 180.875153,407.405762 179.685791,412.077850 
	C178.145935,418.126740 172.939774,418.091309 167.707809,418.644958 
M172.816330,413.805145 
	C176.019455,411.798553 176.353409,408.526245 174.500519,406.077393 
	C171.283447,401.825470 166.493866,404.004883 162.248566,403.954041 
	C162.248566,407.624573 162.248566,410.842102 162.248566,414.021515 
	C165.705795,414.021515 168.824005,414.021515 172.816330,413.805145 
M169.125000,390.899139 
	C166.866241,390.899139 164.607483,390.899139 162.245148,390.899139 
	C162.245148,394.096527 162.245148,396.778992 162.245148,399.700562 
	C164.865921,399.700562 167.343643,400.254700 169.369614,399.535736 
	C171.185776,398.891205 173.423157,397.018951 173.736160,395.360260 
	C173.963562,394.155212 171.355850,392.415161 169.125000,390.899139 
z"/>
<path fill="#35658E" opacity="1.000000" stroke="none" 
	d="
M504.521179,386.952759 
	C506.674164,387.814636 509.183014,388.368988 510.179688,389.904724 
	C514.386047,396.386292 518.141663,403.160309 522.854858,409.626709 
	C522.854858,402.281128 522.854858,394.935547 522.854858,387.645294 
	C526.352722,385.962402 527.740173,386.639465 527.672363,390.362457 
	C527.526978,398.337738 527.702454,406.318817 527.558105,414.294159 
	C527.532471,415.712860 526.597046,417.115143 526.081787,418.525024 
	C524.465637,417.709351 522.175537,417.319305 521.346436,416.006500 
	C517.044617,409.194885 513.115784,402.147766 508.040192,395.409149 
	C508.040192,401.773621 508.168793,408.142761 507.939026,414.498932 
	C507.888977,415.882660 506.556183,417.220032 505.814178,418.578735 
	C505.122192,417.192139 503.839691,415.807983 503.833893,414.418518 
	C503.795837,405.311859 504.033661,396.204102 504.521179,386.952759 
z"/>
<path fill="#396790" opacity="1.000000" stroke="none" 
	d="
M210.460724,418.633423 
	C209.140747,417.684387 207.505524,416.757721 207.486053,415.798248 
	C207.293915,406.332855 207.369904,396.861969 207.369904,386.570190 
	C212.268875,386.859131 216.785126,386.589905 221.052963,387.493744 
	C228.851624,389.145233 232.842300,395.425110 232.291382,403.957092 
	C231.786667,411.773468 227.019516,417.061157 219.355591,418.081940 
	C216.560287,418.454285 213.716797,418.464935 210.460724,418.633423 
M211.897339,397.575775 
	C211.897339,403.013367 211.897339,408.450958 211.897339,414.059601 
	C217.835938,414.687439 223.253311,414.818237 226.364182,409.301666 
	C228.968018,404.684204 228.854477,399.678833 225.875687,395.137024 
	C223.219803,391.087524 218.421677,390.011749 211.897308,391.730927 
	C211.897308,393.312195 211.897308,394.957123 211.897339,397.575775 
z"/>
<path fill="#32628C" opacity="1.000000" stroke="none" 
	d="
M376.873535,419.000946 
	C365.554626,418.131409 358.494415,409.934357 360.151855,400.102203 
	C361.736542,390.701233 370.789764,384.757843 380.160187,386.966766 
	C387.451843,388.685669 392.407043,395.335541 392.244293,403.183685 
	C392.068665,411.650940 386.671753,417.354431 376.873535,419.000946 
M370.109528,392.191620 
	C364.294983,396.813843 362.700928,402.469635 365.574646,408.281464 
	C368.034973,413.257233 373.665466,415.947937 378.864471,414.632446 
	C385.681549,412.907532 389.677032,405.849548 387.629761,399.148712 
	C385.436218,391.969238 378.881348,389.114594 370.109528,392.191620 
z"/>
<path fill="#35658E" opacity="1.000000" stroke="none" 
	d="
M315.824158,386.742462 
	C317.622498,386.742798 319.020325,386.488800 320.265259,386.816254 
	C321.452942,387.128632 322.481293,388.046844 323.579651,388.698730 
	C322.529816,389.429718 321.512543,390.729126 320.424408,390.791443 
	C316.147522,391.036377 311.848328,390.891754 307.304077,390.891754 
	C307.304077,394.015778 307.304077,396.745300 307.304077,399.861481 
	C312.186920,399.861481 316.943146,399.861481 321.699371,399.861481 
	C322.006531,400.328033 322.313660,400.794586 322.620819,401.261169 
	C321.540894,402.138306 320.514160,403.680450 319.371429,403.771851 
	C315.443024,404.086060 311.474030,403.892609 307.286621,403.892609 
	C307.286621,407.410980 307.286621,410.504211 307.286621,414.374512 
	C311.526489,414.374512 315.774200,414.207825 319.993927,414.478210 
	C321.225983,414.557159 322.378296,415.881500 323.567139,416.635010 
	C322.454651,417.298798 321.360962,418.496155 320.226471,418.536194 
	C314.611908,418.734161 308.986603,418.626312 303.056030,418.626312 
	C303.056030,407.877960 303.056030,397.642670 303.056030,386.742279 
	C307.171417,386.742279 311.264160,386.742279 315.824158,386.742462 
z"/>
<path fill="#3E6C93" opacity="1.000000" stroke="none" 
	d="
M147.094269,414.355377 
	C148.058807,415.364990 148.617538,416.358643 149.176270,417.352264 
	C148.378128,417.787720 147.587891,418.582458 146.780579,418.600189 
	C141.620773,418.713806 136.450577,418.791901 131.300522,418.540039 
	C130.284256,418.490326 128.509506,416.971039 128.491119,416.099823 
	C128.288254,406.490875 128.363617,396.876099 128.363617,386.990723 
	C135.482178,386.990723 142.072098,386.990723 148.854523,386.990723 
	C149.732468,389.677399 149.155106,391.042206 146.030167,390.949036 
	C141.892273,390.825653 137.747925,390.918640 133.264572,390.918640 
	C133.264572,393.926910 133.264572,396.649445 133.264572,399.844482 
	C138.000305,399.844482 142.758301,399.844482 147.473419,399.844482 
	C147.714767,403.915375 147.714767,403.916107 142.141205,403.919525 
	C139.321884,403.921265 136.502548,403.919830 133.302216,403.919830 
	C133.302216,407.334656 133.302216,410.535919 133.302216,414.339386 
	C137.805008,414.339386 142.246735,414.339386 147.094269,414.355377 
z"/>
<path fill="#3A6891" opacity="1.000000" stroke="none" 
	d="
M475.584381,418.490112 
	C474.797821,417.516174 474.148895,416.657471 474.142212,415.793854 
	C474.069275,406.310822 474.096436,396.826996 474.096436,386.734924 
	C480.331085,386.734924 486.280579,386.646851 492.221832,386.829071 
	C493.121368,386.856628 493.982391,388.141388 494.861267,388.844604 
	C493.926697,389.530731 493.018097,390.763519 492.053131,390.809387 
	C487.594543,391.021210 483.120331,390.902893 478.469727,390.902893 
	C478.469727,394.062469 478.469727,396.693481 478.469727,399.951508 
	C482.644623,399.951508 486.751129,399.833191 490.841156,400.040466 
	C491.781677,400.088135 492.665588,401.253540 493.575500,401.904541 
	C492.655762,402.571320 491.764679,403.761414 490.811279,403.813660 
	C486.847046,404.030853 482.863953,403.904968 478.585968,403.904968 
	C478.585968,407.393219 478.585968,410.475800 478.585968,414.354767 
	C482.844086,414.354767 487.125824,414.186768 491.378906,414.461639 
	C492.585999,414.539612 493.709717,415.908264 494.871643,416.685059 
	C493.752991,417.338928 492.653595,418.514832 491.512329,418.557037 
	C486.354767,418.747620 481.185364,418.617584 475.584381,418.490112 
z"/>
<path fill="#426F95" opacity="1.000000" stroke="none" 
	d="
M245.345367,399.572205 
	C250.225662,399.835754 254.702866,399.835754 259.117004,399.835754 
	C259.721161,403.926056 259.721161,403.927246 254.091141,403.932495 
	C251.131256,403.935272 248.171387,403.932983 244.957855,403.932983 
	C244.957855,407.500549 244.957855,410.571533 244.957855,414.317627 
	C249.402344,414.317627 253.681061,414.175415 257.937988,414.416931 
	C259.011749,414.477814 260.015930,415.765503 261.052063,416.489441 
	C260.023712,417.220947 259.022888,418.534058 257.962341,418.584198 
	C253.143753,418.811920 248.293930,418.883331 243.489655,418.536102 
	C242.363083,418.454651 240.484238,416.547485 240.455139,415.440765 
	C240.210388,406.133209 240.315720,396.816406 240.315720,387.098053 
	C247.151367,387.098053 253.716873,387.098053 260.538605,387.098053 
	C261.661194,389.502625 261.164520,390.952789 258.013245,390.935791 
	C253.726807,390.912628 249.440170,390.930023 244.942276,390.930023 
	C244.942276,394.082886 244.942276,396.695770 245.345367,399.572205 
z"/>
<path fill="#31628C" opacity="1.000000" stroke="none" 
	d="
M412.698792,406.835022 
	C410.100891,406.870605 407.963318,406.870605 405.245026,406.870605 
	C405.245026,410.042236 405.448578,412.826660 405.143005,415.554047 
	C405.023865,416.617401 403.758667,417.552399 403.015503,418.545837 
	C402.383728,417.592285 401.216919,416.646484 401.202942,415.683929 
	C401.065613,406.228638 401.120056,396.770599 401.120056,386.978882 
	C406.214050,386.978882 411.008423,386.732422 415.766510,387.042664 
	C421.437775,387.412415 424.121948,390.476532 424.311890,396.025635 
	C424.523132,402.197052 422.295441,405.205902 416.615295,406.345673 
	C415.478638,406.573730 414.311981,406.652039 412.698792,406.835022 
M405.991272,402.595428 
	C409.281219,402.595245 412.606812,402.897675 415.851776,402.515533 
	C419.603851,402.073700 420.324249,399.175934 420.140167,395.880035 
	C419.961517,392.681458 418.250336,391.013275 415.139374,390.902802 
	C411.915802,390.788361 408.684937,390.877319 405.377594,390.877319 
	C405.377594,395.060242 405.377594,398.500519 405.991272,402.595428 
z"/>
<path fill="#32628C" opacity="1.000000" stroke="none" 
	d="
M293.134888,393.246582 
	C290.323914,400.772430 287.731476,407.967194 284.843781,415.041443 
	C284.266724,416.455048 282.562836,417.408661 281.378510,418.574341 
	C280.320465,417.480774 278.791595,416.571503 278.279968,415.264099 
	C274.661072,406.016663 271.250854,396.687531 267.764618,387.359131 
	C271.059021,385.940918 272.214142,387.362579 273.137146,390.009186 
	C275.703156,397.366913 278.506409,404.641907 281.541107,412.826538 
	C284.552612,404.692535 287.135742,397.341217 290.054932,390.125824 
	C290.688934,388.558807 292.527832,387.479248 293.811798,386.175171 
	C294.309845,386.582733 294.807892,386.990265 295.305939,387.397827 
	C294.620483,389.222931 293.935059,391.048035 293.134888,393.246582 
z"/>
<path fill="#32638C" opacity="1.000000" stroke="none" 
	d="
M549.885132,399.046021 
	C549.885071,404.364197 550.062622,409.200684 549.782776,414.010559 
	C549.692444,415.564087 548.399841,417.047699 547.657166,418.563293 
	C547.021240,417.121399 545.870972,415.691986 545.835632,414.235535 
	C545.651001,406.622467 545.749451,399.002563 545.749451,391.459778 
	C535.844482,389.849304 535.844482,389.849304 535.949097,386.969299 
	C543.721375,386.969299 551.504395,386.969299 559.281921,386.969299 
	C559.848389,390.219299 559.848389,390.219299 549.885132,391.311188 
	C549.885132,393.675446 549.885132,396.114716 549.885132,399.046021 
z"/>
<path fill="#4F789C" opacity="1.000000" stroke="none" 
	d="
M335.664246,386.868774 
	C336.269226,393.085876 336.538208,399.157043 336.726654,405.230713 
	C336.813141,408.018494 336.741394,410.811218 336.741394,414.260620 
	C341.110992,414.260620 345.055206,414.058807 348.958649,414.369507 
	C350.335205,414.479065 351.611969,415.842224 352.934296,416.633026 
	C351.689484,417.335541 350.474457,418.572479 349.194397,418.643860 
	C344.722809,418.893219 340.226166,418.649261 335.744141,418.774780 
	C333.185852,418.846405 332.190796,417.910645 332.222321,415.303284 
	C332.324768,406.831818 332.152039,398.355255 332.394226,389.889496 
	C332.425171,388.807526 334.283569,387.777832 335.664246,386.868774 
z"/>
<path fill="#FDFFFF" opacity="1.000000" stroke="none" 
	d="
M274.230347,334.293884 
	C234.369324,352.088531 194.399475,353.081207 156.720657,331.566803 
	C110.353226,305.091187 86.488556,264.274872 88.877464,209.757828 
	C90.418129,174.598572 105.540413,146.011154 130.680191,121.948242 
	C177.187592,77.432991 251.537888,77.362022 299.619049,116.224487 
	C300.898712,117.258774 302.104706,118.384193 302.961792,119.132515 
	C296.167786,125.957550 289.509583,132.646179 282.737213,139.449493 
	C277.623016,136.062698 272.024139,131.887115 266.005585,128.445374 
	C227.844620,106.622833 175.696732,115.784225 145.329865,147.514343 
	C110.034393,184.394363 109.272125,243.105072 139.276031,280.188538 
	C155.793472,300.603363 176.936325,313.164825 202.999695,316.946503 
	C235.323410,321.636475 263.582275,312.860657 287.744049,290.819458 
	C288.903137,289.762085 291.116302,288.748138 292.415131,289.135132 
	C301.307770,291.784729 310.087189,294.814331 319.676178,297.976379 
	C306.950104,313.694580 292.157501,325.625732 274.230347,334.293884 
z"/>
<path fill="#FDFFFF" opacity="1.000000" stroke="none" 
	d="
M526.824707,231.946579 
	C503.027313,231.903717 479.707336,231.813766 456.387695,231.870071 
	C439.317322,231.911285 424.023743,227.007355 410.489990,216.453613 
	C377.596710,190.803070 373.689575,142.178528 401.860779,111.518997 
	C413.824127,98.498962 427.931335,90.182251 446.240784,88.248726 
	C446.240784,97.464424 446.341827,106.422432 446.097687,115.371025 
	C446.070770,116.357712 444.219421,117.789642 442.958313,118.172882 
	C425.821838,123.380203 415.403320,134.984497 412.429321,152.323120 
	C409.537903,169.180069 415.181580,183.502686 428.709564,194.383347 
	C435.547760,199.883392 443.346497,202.975739 452.139587,203.021667 
	C475.625458,203.144318 499.112122,203.149338 522.598450,203.141312 
	C546.242554,203.133240 565.579651,212.294434 580.598572,230.464951 
	C607.120789,262.552734 599.286987,311.433014 563.924988,335.035706 
	C553.858521,341.754669 541.476929,346.184174 533.117432,345.934692 
	C533.117432,336.528107 533.117432,327.107544 533.117432,317.712799 
	C552.483459,312.558716 570.359985,297.621124 566.820557,268.315308 
	C564.558594,249.587173 546.253174,233.018188 526.824707,231.946579 
z"/>
<path fill="#FAFEFE" opacity="1.000000" stroke="none" 
	d="
M253.000000,231.858490 
	C244.218948,231.858429 235.937897,231.858429 227.332428,231.858429 
	C227.332428,222.218643 227.332428,213.007156 227.332428,203.466797 
	C255.421280,203.466797 283.424194,203.466797 312.004120,203.466797 
	C311.218750,204.587357 310.737762,205.545303 310.016449,206.261063 
	C302.108459,214.107880 294.244049,222.002731 286.148987,229.652954 
	C284.776642,230.949844 282.382538,231.714584 280.437042,231.761993 
	C271.462585,231.980652 262.479797,231.858505 253.000000,231.858490 
z"/>
<path fill="#FDFFFF" opacity="1.000000" stroke="none" 
	d="
M172.379272,413.913330 
	C168.824005,414.021515 165.705795,414.021515 162.248566,414.021515 
	C162.248566,410.842102 162.248566,407.624573 162.248566,403.954041 
	C166.493866,404.004883 171.283447,401.825470 174.500519,406.077393 
	C176.353409,408.526245 176.019455,411.798553 172.379272,413.913330 
z"/>
<path fill="#F9FAFC" opacity="1.000000" stroke="none" 
	d="
M169.568604,390.906372 
	C171.355850,392.415161 173.963562,394.155212 173.736160,395.360260 
	C173.423157,397.018951 171.185776,398.891205 169.369614,399.535736 
	C167.343643,400.254700 164.865921,399.700562 162.245148,399.700562 
	C162.245148,396.778992 162.245148,394.096527 162.245148,390.899139 
	C164.607483,390.899139 166.866241,390.899139 169.568604,390.906372 
z"/>
<path fill="#FCFDFE" opacity="1.000000" stroke="none" 
	d="
M211.897324,397.088928 
	C211.897308,394.957123 211.897308,393.312195 211.897308,391.730927 
	C218.421677,390.011749 223.219803,391.087524 225.875687,395.137024 
	C228.854477,399.678833 228.968018,404.684204 226.364182,409.301666 
	C223.253311,414.818237 217.835938,414.687439 211.897339,414.059601 
	C211.897339,408.450958 211.897339,403.013367 211.897324,397.088928 
z"/>
<path fill="#FCFCFD" opacity="1.000000" stroke="none" 
	d="
M370.473511,392.013672 
	C378.881348,389.114594 385.436218,391.969238 387.629761,399.148712 
	C389.677032,405.849548 385.681549,412.907532 378.864471,414.632446 
	C373.665466,415.947937 368.034973,413.257233 365.574646,408.281464 
	C362.700928,402.469635 364.294983,396.813843 370.473511,392.013672 
z"/>
<path fill="#F6F8FA" opacity="1.000000" stroke="none" 
	d="
M405.684448,402.268097 
	C405.377594,398.500519 405.377594,395.060242 405.377594,390.877319 
	C408.684937,390.877319 411.915802,390.788361 415.139374,390.902802 
	C418.250336,391.013275 419.961517,392.681458 420.140167,395.880035 
	C420.324249,399.175934 419.603851,402.073700 415.851776,402.515533 
	C412.606812,402.897675 409.281219,402.595245 405.684448,402.268097 
z"/>
</svg>